<mxfile host="app.diagrams.net" modified="2024-04-09T23:39:03.547Z" agent="Mozilla/5.0 (Windows NT 10.0; Win64; x64) AppleWebKit/537.36 (KHTML, like Gecko) Chrome/123.0.0.0 Safari/537.36 Edg/123.0.0.0" etag="RXHe_MqO80MkDrj1BaWi" version="24.2.3" type="device">
  <diagram name="Page-1" id="GA-I0wITodOb1sZlkpUc">
    <mxGraphModel dx="1450" dy="655" grid="1" gridSize="10" guides="1" tooltips="1" connect="1" arrows="1" fold="1" page="1" pageScale="1" pageWidth="1700" pageHeight="1100" background="#FFFFFF" math="0" shadow="0">
      <root>
        <mxCell id="0" />
        <mxCell id="1" parent="0" />
        <mxCell id="RgEp6XTYewznHyzpMlsy-2" value="&lt;div&gt;&lt;span style=&quot;background-color: initial;&quot;&gt;&lt;font color=&quot;#000000&quot;&gt;User&lt;/font&gt;&lt;/span&gt;&lt;br&gt;&lt;/div&gt;" style="text;html=1;align=center;verticalAlign=middle;resizable=0;points=[];autosize=1;fontColor=#107ae5;fontStyle=1" parent="1" vertex="1">
          <mxGeometry x="73.5" y="440" width="50" height="30" as="geometry" />
        </mxCell>
        <mxCell id="RgEp6XTYewznHyzpMlsy-3" value="" style="shape=ext;double=1;rounded=0;whiteSpace=wrap;html=1;fillColor=#f5f5f5;fontColor=#333333;strokeColor=#66B2FF;" parent="1" vertex="1">
          <mxGeometry x="220" y="352.5" width="750" height="205" as="geometry" />
        </mxCell>
        <mxCell id="RgEp6XTYewznHyzpMlsy-10" value="" style="endArrow=classic;html=1;rounded=0;" parent="1" edge="1">
          <mxGeometry width="50" height="50" relative="1" as="geometry">
            <mxPoint x="140" y="425" as="sourcePoint" />
            <mxPoint x="240" y="425" as="targetPoint" />
          </mxGeometry>
        </mxCell>
        <mxCell id="RgEp6XTYewznHyzpMlsy-11" value="" style="line;strokeWidth=2;direction=south;html=1;fillColor=#dae8fc;strokeColor=#66B2FF;" parent="1" vertex="1">
          <mxGeometry x="400" y="352.5" width="10" height="205" as="geometry" />
        </mxCell>
        <mxCell id="RgEp6XTYewznHyzpMlsy-13" value="" style="line;strokeWidth=2;html=1;strokeColor=#66B2FF;" parent="1" vertex="1">
          <mxGeometry x="404" y="450" width="566" height="10" as="geometry" />
        </mxCell>
        <mxCell id="RgEp6XTYewznHyzpMlsy-15" value="&lt;div&gt;&lt;br&gt;&lt;/div&gt;&lt;div&gt;&lt;br&gt;&lt;/div&gt;&lt;div&gt;&lt;br&gt;&lt;/div&gt;&lt;div&gt;Azure Application Gateway&lt;/div&gt;" style="rounded=0;whiteSpace=wrap;html=1;strokeColor=none;" parent="1" vertex="1">
          <mxGeometry x="250" y="410" width="120" height="110" as="geometry" />
        </mxCell>
        <mxCell id="RgEp6XTYewznHyzpMlsy-16" value="" style="shape=image;verticalLabelPosition=bottom;labelBackgroundColor=#ffffff;verticalAlign=top;aspect=fixed;imageAspect=0;image=data:image/svg+xml,PHN2ZyB4bWxuczpkYz0iaHR0cDovL3B1cmwub3JnL2RjL2VsZW1lbnRzLzEuMS8iIHhtbG5zOmNjPSJodHRwOi8vY3JlYXRpdmVjb21tb25zLm9yZy9ucyMiIHhtbG5zOnJkZj0iaHR0cDovL3d3dy53My5vcmcvMTk5OS8wMi8yMi1yZGYtc3ludGF4LW5zIyIgeG1sbnM6c3ZnPSJodHRwOi8vd3d3LnczLm9yZy8yMDAwL3N2ZyIgeG1sbnM9Imh0dHA6Ly93d3cudzMub3JnLzIwMDAvc3ZnIiB4bWxuczpzb2RpcG9kaT0iaHR0cDovL3NvZGlwb2RpLnNvdXJjZWZvcmdlLm5ldC9EVEQvc29kaXBvZGktMC5kdGQiIHhtbG5zOmlua3NjYXBlPSJodHRwOi8vd3d3Lmlua3NjYXBlLm9yZy9uYW1lc3BhY2VzL2lua3NjYXBlIiB2ZXJzaW9uPSIxLjEiIGlkPSJzdmc0OTI1OSIgaW5rc2NhcGU6dmVyc2lvbj0iMC45Mi4zICgyNDA1NTQ2LCAyMDE4LTAzLTExKSIgc29kaXBvZGk6ZG9jbmFtZT0iYXBwbGljYXRpb25fZ2F0ZXdheS5zdmciIHg9IjBweCIgeT0iMHB4IiB2aWV3Qm94PSIwIDAgMTAwLjMxIDEwMC4xMSIgeG1sOnNwYWNlPSJwcmVzZXJ2ZSIgd2lkdGg9IjEwMC4zMSIgaGVpZ2h0PSIxMDAuMTEiPjxtZXRhZGF0YSBpZD0ibWV0YWRhdGExNjMzNSI+PHJkZjpSREY+PGNjOldvcmsgcmRmOmFib3V0PSIiPjxkYzpmb3JtYXQ+aW1hZ2Uvc3ZnK3htbDwvZGM6Zm9ybWF0PjxkYzp0eXBlIHJkZjpyZXNvdXJjZT0iaHR0cDovL3B1cmwub3JnL2RjL2RjbWl0eXBlL1N0aWxsSW1hZ2UiLz48ZGM6dGl0bGUvPjwvY2M6V29yaz48L3JkZjpSREY+PC9tZXRhZGF0YT48ZGVmcyBpZD0iZGVmczE2MzMzIi8+JiN4YTs8ZmlsdGVyIGlkPSJmaWx0ZXJfMiI+JiN4YTsJPGZlR2F1c3NpYW5CbHVyIGlkPSJmZUdhdXNzaWFuQmx1cjQ5MTg0IiBzdGREZXZpYXRpb249IjIiLz4mI3hhOzwvZmlsdGVyPiYjeGE7PHNvZGlwb2RpOm5hbWVkdmlldyBib3JkZXJjb2xvcj0iIzY2NjY2NiIgYm9yZGVyb3BhY2l0eT0iMSIgZml0LW1hcmdpbi1ib3R0b209IjAiIGZpdC1tYXJnaW4tbGVmdD0iMCIgZml0LW1hcmdpbi1yaWdodD0iMCIgZml0LW1hcmdpbi10b3A9IjAiIGdyaWR0b2xlcmFuY2U9IjEwIiBndWlkZXRvbGVyYW5jZT0iMTAiIGlkPSJuYW1lZHZpZXc0OTI2MSIgaW5rc2NhcGU6Y3VycmVudC1sYXllcj0ic3ZnNDkyNTkiIGlua3NjYXBlOmN4PSIzNy42OTE3NzEiIGlua3NjYXBlOmN5PSI0OC40MTY5MjYiIGlua3NjYXBlOnBhZ2VvcGFjaXR5PSIwIiBpbmtzY2FwZTpwYWdlc2hhZG93PSIyIiBpbmtzY2FwZTp3aW5kb3ctaGVpZ2h0PSIxMDE3IiBpbmtzY2FwZTp3aW5kb3ctbWF4aW1pemVkPSIxIiBpbmtzY2FwZTp3aW5kb3ctd2lkdGg9IjE5MjAiIGlua3NjYXBlOndpbmRvdy14PSItOCIgaW5rc2NhcGU6d2luZG93LXk9Ii04IiBpbmtzY2FwZTp6b29tPSI1LjIxOTMxOTgiIG9iamVjdHRvbGVyYW5jZT0iMTAiIHBhZ2Vjb2xvcj0iI2ZmZmZmZiIgc2hvd2dyaWQ9ImZhbHNlIj4mI3hhOwk8L3NvZGlwb2RpOm5hbWVkdmlldz4mI3hhOyYjeGE7PHBhdGggaWQ9InBhdGg0OTE5NyIgaW5rc2NhcGU6Y29ubmVjdG9yLWN1cnZhdHVyZT0iMCIgc3R5bGU9ImZpbGw6IzdmYmEwMCIgZD0ibSA1MC4wNSwxMDAuMTEgYyAtMi40LDAgLTQuOCwtMS4wMSAtNi42LC0yLjgxIEwgMi44LDU2LjY2IEMgMSw1NC44NiAwLDUyLjQ2IDAsNTAuMDUgYyAwLC0yLjQgMSwtNC44IDIuOCwtNi42IEwgNDMuNDUsMi44IEMgNDUuMjUsMSA0Ny42NSwwIDUwLjA1LDAgYyAyLjQxLDAgNC44MSwxIDYuNjEsMi44IEwgOTcuNSw0My42NSBjIDEuOCwxLjggMi44MSw0IDIuODEsNi42IDAsMi40MSAtMS4wMSw0LjgxIC0yLjgxLDYuNjEgTCA1Ni42Niw5Ny4zIGMgLTEuOCwxLjggLTQuMiwyLjgxIC02LjYxLDIuODEgeiIvPiYjeGE7JiN4YTs8cGF0aCBpZD0icGF0aDQ5MjA1IiBpbmtzY2FwZTpjb25uZWN0b3ItY3VydmF0dXJlPSIwIiBzdHlsZT0iZmlsbDojZmZmZmZmIiBkPSJtIDU5LjU0LDM3LjIgYyAtMi44LDIuMTQgLTYuMDksMy4xOSAtOS4zNywzLjE5IC00LjY0LDAgLTkuMjQsLTIuMDkgLTEyLjI3LC02LjA2IC01LjE5LC02Ljc3IC0zLjkxLC0xNi40NiAyLjg3LC0yMS42NSAyLjgsLTIuMTUgNi4xLC0zLjE4IDkuMzcsLTMuMTggNC42NSwwIDkuMjQsMi4wOSAxMi4yOCw2LjA2IDUuMTgsNi43OCAzLjg5LDE2LjQ2IC0yLjg4LDIxLjY0IHoiLz4mI3hhOyYjeGE7PHBhdGggaWQ9InBhdGg0OTIxMyIgaW5rc2NhcGU6Y29ubmVjdG9yLWN1cnZhdHVyZT0iMCIgc3R5bGU9ImZpbGw6I2ZmZmZmZjtmaWxsLW9wYWNpdHk6MC4xNSIgZD0iTSA1Ni42NiwyLjggQyA1NC44NiwxIDUyLjQ2LDAgNTAuMDUsMCBjIC0yLjQsMCAtNC44LDEgLTYuNiwyLjggTCAyLjgsNDMuNDUgQyAxLDQ1LjI1IDAsNDcuNjUgMCw1MC4wNSBjIDAsMi40MSAxLDQuODEgMi44LDYuNjEgTCAyNS44Myw3OS42OSA2OS4yNywxNS40MiBaIi8+JiN4YTsmI3hhOzxwYXRoIGlkPSJwYXRoNDkyMjEiIGlua3NjYXBlOmNvbm5lY3Rvci1jdXJ2YXR1cmU9IjAiIHN0eWxlPSJmaWxsOiNmZmZmZmYiIGQ9Ik0gNTAuMDUsOTEuMyA2My4yNyw3OC4wOCBIIDUzLjg2IFYgMzguMzQgaCAtNy44MSB2IDM5Ljc0IGggLTkuMjEgeiIvPiYjeGE7JiN4YTs8cGF0aCBpZD0icGF0aDQ5MjI5IiBpbmtzY2FwZTpjb25uZWN0b3ItY3VydmF0dXJlPSIwIiBzdHlsZT0iZmlsbDojZmZmZmZmIiBkPSJNIDc4Ljc0LDY3LjA0IFYgNDguMzUgbCAtNi41MSw2LjUxIC0xNi45MSwtMTYuOTEgLTUuNjYsNS42NyAxNi45MSwxNi45IC02LjUyLDYuNTIgeiIvPiYjeGE7JiN4YTs8cGF0aCBpZD0icGF0aDQ5MjM3IiBpbmtzY2FwZTpjb25uZWN0b3ItY3VydmF0dXJlPSIwIiBzdHlsZT0iZmlsbDojZmZmZmZmIiBkPSJNIDIxLjM5LDY3LjExIEggNDAuMDggTCAzMy41Niw2MC41OSA1MC45NSw0My4yMSA0NS4yOCwzNy41NSAyNy45LDU0LjkzIDIxLjM5LDQ4LjQyIFoiLz4mI3hhOyYjeGE7PHBhdGggaWQ9InBhdGg0OTI0NSIgaW5rc2NhcGU6Y29ubmVjdG9yLWN1cnZhdHVyZT0iMCIgc3R5bGU9ImZpbGw6IzU5YjRkOSIgZD0ibSA1OC4yOSwzNS41OCBjIC0yLjQyLDEuODUgLTUuMjgsMi43NiAtOC4xMiwyLjc2IC00LjAzLDAgLTguMDEsLTEuODEgLTEwLjY0LC01LjI2IC00LjUsLTUuODcgLTMuMzksLTE0LjI3IDIuNDksLTE4Ljc3IDIuNDMsLTEuODYgNS4yOSwtMi43NSA4LjEyLC0yLjc1IDQuMDMsMCA4LjAyLDEuOCAxMC42NSw1LjI1IDQuNSw1Ljg3IDMuMzgsMTQuMjcgLTIuNSwxOC43NyB6Ii8+JiN4YTsmI3hhOzxwYXRoIGlkPSJwYXRoNDkyNTMiIGlua3NjYXBlOmNvbm5lY3Rvci1jdXJ2YXR1cmU9IjAiIHN0eWxlPSJmaWxsOiNmZmZmZmYiIGQ9Im0gNTUuODMsMjcuMyBjIDAuOTgsMS4yNyAyLjc4LDEuNDkgNC4wNCwwLjU0IDAuMDcsLTAuMDUgMC4xMiwtMC4xMiAwLjE4LC0wLjE3IDEuMjksMC45MSAyLjE4LDEuNTEgMi42OSwxLjg1IDAuMTUsLTAuMzkgMC4yNSwtMC43NiAwLjM2LC0xLjE1IC0wLjUzLC0wLjM5IC0xLjI2LC0wLjk1IC0yLjMsLTEuNzkgMC4zNCwtMC45IDAuMjMsLTEuOTUgLTAuMzksLTIuNzggLTAuOSwtMS4xNSAtMi40OCwtMS40NSAtMy43MiwtMC43MyAtMS4zNiwtMS4yMyAtMi44NiwtMi42MyAtNC40NCwtNC4yIDQuOTEsLTIuNjQgOC40LC0yLjI1IDguNCwtMi4yNSAtMC41OSwtMC43NSAtMS4yNCwtMS40IC0xLjkzLC0xLjk4IC0yLjA3LC0wLjMyIC01LjI5LC0wLjI5IC04Ljk3LDEuNjcgViAxNi4zIGMgLTEuMjIsLTEuMjggLTIuNDcsLTIuNjUgLTMuNzQsLTQuMTMgLTAuNiwwLjIgLTEuMiwwLjQ0IC0xLjc3LDAuNzMgMC45MywxLjUzIDIuMiwzLjA3IDMuNjIsNC41OCAwLDAuMDEgMCwwLjAxIDAuMDEsMC4wMSAtMS4xOSwwLjgzIC0yLjUxLDEuOTQgLTMuNzIsMy4yMyAtMC4xNiwwLjE2IC0wLjMxLDAuMzMgLTAuNDUsMC40OSAtMC43MywtMC4xNSAtMS41LC0wLjEgLTIuMjEsMC4xNSAtMS4yMSwtMi42MSAtMS4xMiwtNC43MSAtMC45MiwtNS44IC0wLjUzLDAuNTUgLTEuMDIsMS4xMyAtMS40NSwxLjc1IC0wLjMxLDEuMyAtMC40LDMuMTYgMC41Myw1LjQxIC0xLjA4LDEuNDIgLTEuMTMsMy40MiAwLDQuOSAwLjEsMC4xMiAwLjIsMC4yNCAwLjMsMC4zNSAtMC40OSwxLjY4IC0wLjcxLDMuMyAtMC43OCw0LjY5IDAuMTIsMC4xNyAwLjEyLDAuMzEgMC4yNSwwLjQ4IDAuNjQsMC44MyAxLjQ1LDEuNTIgMi4yMywyLjE1IC0wLjEsLTEuNDcgMC4wMSwtMy42NSAwLjkyLC02LjA5IDAuNjMsMC4wNCAxLjI3LC0wLjA2IDEuODYsLTAuMzEgMC4zNSwwLjMxIDAuNywwLjYxIDEuMDksMC45MiAxLjMxLDEuMDQgMi42MiwxLjg1IDMuOSwyLjQ5IC0wLjA2LDAuNjUgMC4xLDEuMzIgMC41MiwxLjg4IDAuOSwxLjE3IDIuNTcsMS4zOSAzLjc0LDAuNDkgMC4yNCwtMC4xOCAwLjQzLC0wLjQxIDAuNTksLTAuNjUgMi4wOSwwLjQ3IDMuOTEsMC41NSA1LjI2LDAuNTUgMC4yLDAgMS4xNiwtMS4zMSAxLjcxLC0yLjExIC0wLjgyLDAuMTcgLTMuMjYsMC41IC02LjU5LC0wLjQ1IC0wLjA4LC0wLjM4IC0wLjIzLC0wLjc0IC0wLjQ4LC0xLjA3IC0wLjg0LC0xLjEgLTIuMzksLTEuMzUgLTMuNTQsLTAuNiAtMS4xNiwtMC42MyAtMi4zNywtMS40MiAtMy42MiwtMi40MSAtMC4yNiwtMC4yIC0wLjUsLTAuNCAtMC43MywtMC42IDAuNzYsLTEuMiAwLjg0LC0yLjc0IDAuMTcsLTQuMDQgMC4xNSwtMC4xNSAwLjMsLTAuMzEgMC40NiwtMC40NiAxLjI0LC0xLjE2IDIuNDEsLTIuMDggMy41LC0yLjgyIC0wLjA1LC0wLjA0IC0wLjA5LC0wLjA5IC0wLjEzLC0wLjEzIDAuMDQsMC4wNCAwLjA4LDAuMDggMC4xMywwLjEyIHYgMCBjIDEuNjcsMS41NSAzLjQ0LDMuMDIgNS4xMiw0LjMzIC0wLjQ0LDAuOTQgLTAuMzcsMi4wOCAwLjMsMi45NyB6Ii8+JiN4YTs8L3N2Zz4=;" parent="1" vertex="1">
          <mxGeometry x="285" y="420" width="50" height="50" as="geometry" />
        </mxCell>
        <mxCell id="RgEp6XTYewznHyzpMlsy-17" value="" style="shape=image;verticalLabelPosition=bottom;labelBackgroundColor=#ffffff;verticalAlign=top;aspect=fixed;imageAspect=0;image=data:image/svg+xml,PHN2ZyB4bWxuczpjYz0iaHR0cDovL2NyZWF0aXZlY29tbW9ucy5vcmcvbnMjIiB4bWxuczpkYz0iaHR0cDovL3B1cmwub3JnL2RjL2VsZW1lbnRzLzEuMS8iIHhtbG5zOmlua3NjYXBlPSJodHRwOi8vd3d3Lmlua3NjYXBlLm9yZy9uYW1lc3BhY2VzL2lua3NjYXBlIiB4bWxuczpyZGY9Imh0dHA6Ly93d3cudzMub3JnLzE5OTkvMDIvMjItcmRmLXN5bnRheC1ucyMiIHhtbG5zOnNvZGlwb2RpPSJodHRwOi8vc29kaXBvZGkuc291cmNlZm9yZ2UubmV0L0RURC9zb2RpcG9kaS0wLmR0ZCIgeG1sbnM6c3ZnPSJodHRwOi8vd3d3LnczLm9yZy8yMDAwL3N2ZyIgeG1sbnM9Imh0dHA6Ly93d3cudzMub3JnLzIwMDAvc3ZnIiB4bWxuczp4bGluaz0iaHR0cDovL3d3dy53My5vcmcvMTk5OS94bGluayIgdmVyc2lvbj0iMS4xIiBpZD0ic3ZnOTkyNDkiIGlua3NjYXBlOnZlcnNpb249IjAuOTIuMyAoMjQwNTU0NiwgMjAxOC0wMy0xMSkiIHNvZGlwb2RpOmRvY25hbWU9InN1Ym5ldHMuc3ZnIiB4PSIwcHgiIHk9IjBweCIgdmlld0JveD0iMCAwIDM0Ljg0IDIxLjYxIiBzdHlsZT0iZW5hYmxlLWJhY2tncm91bmQ6bmV3IDAgMCAzNC44NCAyMS42MTsiIHhtbDpzcGFjZT0icHJlc2VydmUiPiYjeGE7PHNvZGlwb2RpOm5hbWVkdmlldyBib3JkZXJjb2xvcj0iIzY2NjY2NiIgYm9yZGVyb3BhY2l0eT0iMSIgZml0LW1hcmdpbi1ib3R0b209IjAiIGZpdC1tYXJnaW4tbGVmdD0iMCIgZml0LW1hcmdpbi1yaWdodD0iMCIgZml0LW1hcmdpbi10b3A9IjAiIGdyaWR0b2xlcmFuY2U9IjEwIiBndWlkZXRvbGVyYW5jZT0iMTAiIGlkPSJuYW1lZHZpZXc5OTI1MSIgaW5rc2NhcGU6Y3VycmVudC1sYXllcj0ic3ZnOTkyNDkiIGlua3NjYXBlOmN4PSI0MC45MTcxNDUiIGlua3NjYXBlOmN5PSIwLjYzNzUyNTg2IiBpbmtzY2FwZTpwYWdlb3BhY2l0eT0iMCIgaW5rc2NhcGU6cGFnZXNoYWRvdz0iMiIgaW5rc2NhcGU6d2luZG93LWhlaWdodD0iMTAxNyIgaW5rc2NhcGU6d2luZG93LW1heGltaXplZD0iMSIgaW5rc2NhcGU6d2luZG93LXdpZHRoPSIxOTIwIiBpbmtzY2FwZTp3aW5kb3cteD0iLTgiIGlua3NjYXBlOndpbmRvdy15PSItOCIgaW5rc2NhcGU6em9vbT0iMTAuNjM5NDk0IiBvYmplY3R0b2xlcmFuY2U9IjEwIiBwYWdlY29sb3I9IiNmZmZmZmYiIHNob3dncmlkPSJmYWxzZSI+JiN4YTsJPC9zb2RpcG9kaTpuYW1lZHZpZXc+JiN4YTs8ZyBpZD0iZzk5MjQ3IiB0cmFuc2Zvcm09InRyYW5zbGF0ZSgtNC4yMzMxNzQ5ZS01KSI+JiN4YTsJPHRpdGxlIGlkPSJ0aXRsZTk5MjI3Ij5QYWdlLTE8L3RpdGxlPiYjeGE7CTxnIGlkPSJncm91cDQ2NTQtMSI+JiN4YTsJCTx0aXRsZSBpZD0idGl0bGU5OTIyOSI+U3VibmV0czwvdGl0bGU+JiN4YTsJCTxnIGlkPSJzaGFwZTQ2NTUtMiIgdHJhbnNmb3JtPSJ0cmFuc2xhdGUoMjIuNjEzKSI+JiN4YTsJCQk8dGl0bGUgaWQ9InRpdGxlOTkyMzEiPlNoZWV0LjQ2NTU8L3RpdGxlPiYjeGE7CQkJPHBhdGggaWQ9InBhdGg5OTIzMyIgaW5rc2NhcGU6Y29ubmVjdG9yLWN1cnZhdHVyZT0iMCIgc3R5bGU9ImZpbGw6IzM5OTlDNjsiIGQ9Ik0xMi4yMywxMC42OEw5Ljg0LDguMjlMMS4zOSwwTDAsMS4yNmw5LjU4LDkuNDIgICAgIEwwLDIwLjM1bDEuMzksMS4yNmw4LjQ1LTguM0wxMi4yMywxMC42OHoiLz4mI3hhOwkJPC9nPiYjeGE7CQk8ZyBpZD0ic2hhcGU0NjU2LTQiPiYjeGE7CQkJPHRpdGxlIGlkPSJ0aXRsZTk5MjM2Ij5TaGVldC40NjU2PC90aXRsZT4mI3hhOwkJCTxwYXRoIGlkPSJwYXRoOTkyMzgiIGlua3NjYXBlOmNvbm5lY3Rvci1jdXJ2YXR1cmU9IjAiIHN0eWxlPSJmaWxsOiMzOTk5QzY7IiBkPSJNMCwxMC42OGwyLjM5LTIuMzlMMTAuODQsMGwxLjM5LDEuMjYgICAgIGwtOS41OCw5LjQybDkuNTgsOS42N2wtMS4zOSwxLjI2bC04LjQ1LTguM0wwLDEwLjY4eiIvPiYjeGE7CQk8L2c+JiN4YTsJCTxnIGlkPSJzaGFwZTQ2NTctNiIgdHJhbnNmb3JtPSJ0cmFuc2xhdGUoMTQuODY4NSwtOC41MzE5NykiPiYjeGE7CQkJPHRpdGxlIGlkPSJ0aXRsZTk5MjQxIj5TaGVldC40NjU3PC90aXRsZT4mI3hhOwkJCTxwYXRoIGlkPSJwYXRoOTkyNDMiIGlua3NjYXBlOmNvbm5lY3Rvci1jdXJ2YXR1cmU9IjAiIHN0eWxlPSJmaWxsOiM3RkJBMDA7IiBkPSJNNC45MSwxOS4yMWMwLDEuMzgtMS4xMywyLjQtMi4zOSwyLjQgICAgIFMwLDIwLjQ2LDAsMTkuMjFjMC0xLjI2LDEuMTMtMi4zOCwyLjUyLTIuMzhTNC45MSwxNy45NSw0LjkxLDE5LjIxeiIvPiYjeGE7CQk8L2c+JiN4YTsJPC9nPiYjeGE7PC9nPiYjeGE7PC9zdmc+;" parent="1" vertex="1">
          <mxGeometry x="230" y="360" width="30" height="18.86" as="geometry" />
        </mxCell>
        <mxCell id="RgEp6XTYewznHyzpMlsy-18" value="Application Gateway Subnet" style="text;html=1;align=center;verticalAlign=middle;whiteSpace=wrap;rounded=0;" parent="1" vertex="1">
          <mxGeometry x="260" y="360" width="110" height="30" as="geometry" />
        </mxCell>
        <mxCell id="RgEp6XTYewznHyzpMlsy-19" value="" style="shape=image;verticalLabelPosition=bottom;labelBackgroundColor=#ffffff;verticalAlign=top;aspect=fixed;imageAspect=0;image=data:image/svg+xml,PHN2ZyB4bWxuczpjYz0iaHR0cDovL2NyZWF0aXZlY29tbW9ucy5vcmcvbnMjIiB4bWxuczpkYz0iaHR0cDovL3B1cmwub3JnL2RjL2VsZW1lbnRzLzEuMS8iIHhtbG5zOmlua3NjYXBlPSJodHRwOi8vd3d3Lmlua3NjYXBlLm9yZy9uYW1lc3BhY2VzL2lua3NjYXBlIiB4bWxuczpyZGY9Imh0dHA6Ly93d3cudzMub3JnLzE5OTkvMDIvMjItcmRmLXN5bnRheC1ucyMiIHhtbG5zOnNvZGlwb2RpPSJodHRwOi8vc29kaXBvZGkuc291cmNlZm9yZ2UubmV0L0RURC9zb2RpcG9kaS0wLmR0ZCIgeG1sbnM6c3ZnPSJodHRwOi8vd3d3LnczLm9yZy8yMDAwL3N2ZyIgeG1sbnM9Imh0dHA6Ly93d3cudzMub3JnLzIwMDAvc3ZnIiB4bWxuczp4bGluaz0iaHR0cDovL3d3dy53My5vcmcvMTk5OS94bGluayIgdmVyc2lvbj0iMS4xIiBpZD0ic3ZnOTkyNDkiIGlua3NjYXBlOnZlcnNpb249IjAuOTIuMyAoMjQwNTU0NiwgMjAxOC0wMy0xMSkiIHNvZGlwb2RpOmRvY25hbWU9InN1Ym5ldHMuc3ZnIiB4PSIwcHgiIHk9IjBweCIgdmlld0JveD0iMCAwIDM0Ljg0IDIxLjYxIiBzdHlsZT0iZW5hYmxlLWJhY2tncm91bmQ6bmV3IDAgMCAzNC44NCAyMS42MTsiIHhtbDpzcGFjZT0icHJlc2VydmUiPiYjeGE7PHNvZGlwb2RpOm5hbWVkdmlldyBib3JkZXJjb2xvcj0iIzY2NjY2NiIgYm9yZGVyb3BhY2l0eT0iMSIgZml0LW1hcmdpbi1ib3R0b209IjAiIGZpdC1tYXJnaW4tbGVmdD0iMCIgZml0LW1hcmdpbi1yaWdodD0iMCIgZml0LW1hcmdpbi10b3A9IjAiIGdyaWR0b2xlcmFuY2U9IjEwIiBndWlkZXRvbGVyYW5jZT0iMTAiIGlkPSJuYW1lZHZpZXc5OTI1MSIgaW5rc2NhcGU6Y3VycmVudC1sYXllcj0ic3ZnOTkyNDkiIGlua3NjYXBlOmN4PSI0MC45MTcxNDUiIGlua3NjYXBlOmN5PSIwLjYzNzUyNTg2IiBpbmtzY2FwZTpwYWdlb3BhY2l0eT0iMCIgaW5rc2NhcGU6cGFnZXNoYWRvdz0iMiIgaW5rc2NhcGU6d2luZG93LWhlaWdodD0iMTAxNyIgaW5rc2NhcGU6d2luZG93LW1heGltaXplZD0iMSIgaW5rc2NhcGU6d2luZG93LXdpZHRoPSIxOTIwIiBpbmtzY2FwZTp3aW5kb3cteD0iLTgiIGlua3NjYXBlOndpbmRvdy15PSItOCIgaW5rc2NhcGU6em9vbT0iMTAuNjM5NDk0IiBvYmplY3R0b2xlcmFuY2U9IjEwIiBwYWdlY29sb3I9IiNmZmZmZmYiIHNob3dncmlkPSJmYWxzZSI+JiN4YTsJPC9zb2RpcG9kaTpuYW1lZHZpZXc+JiN4YTs8ZyBpZD0iZzk5MjQ3IiB0cmFuc2Zvcm09InRyYW5zbGF0ZSgtNC4yMzMxNzQ5ZS01KSI+JiN4YTsJPHRpdGxlIGlkPSJ0aXRsZTk5MjI3Ij5QYWdlLTE8L3RpdGxlPiYjeGE7CTxnIGlkPSJncm91cDQ2NTQtMSI+JiN4YTsJCTx0aXRsZSBpZD0idGl0bGU5OTIyOSI+U3VibmV0czwvdGl0bGU+JiN4YTsJCTxnIGlkPSJzaGFwZTQ2NTUtMiIgdHJhbnNmb3JtPSJ0cmFuc2xhdGUoMjIuNjEzKSI+JiN4YTsJCQk8dGl0bGUgaWQ9InRpdGxlOTkyMzEiPlNoZWV0LjQ2NTU8L3RpdGxlPiYjeGE7CQkJPHBhdGggaWQ9InBhdGg5OTIzMyIgaW5rc2NhcGU6Y29ubmVjdG9yLWN1cnZhdHVyZT0iMCIgc3R5bGU9ImZpbGw6IzM5OTlDNjsiIGQ9Ik0xMi4yMywxMC42OEw5Ljg0LDguMjlMMS4zOSwwTDAsMS4yNmw5LjU4LDkuNDIgICAgIEwwLDIwLjM1bDEuMzksMS4yNmw4LjQ1LTguM0wxMi4yMywxMC42OHoiLz4mI3hhOwkJPC9nPiYjeGE7CQk8ZyBpZD0ic2hhcGU0NjU2LTQiPiYjeGE7CQkJPHRpdGxlIGlkPSJ0aXRsZTk5MjM2Ij5TaGVldC40NjU2PC90aXRsZT4mI3hhOwkJCTxwYXRoIGlkPSJwYXRoOTkyMzgiIGlua3NjYXBlOmNvbm5lY3Rvci1jdXJ2YXR1cmU9IjAiIHN0eWxlPSJmaWxsOiMzOTk5QzY7IiBkPSJNMCwxMC42OGwyLjM5LTIuMzlMMTAuODQsMGwxLjM5LDEuMjYgICAgIGwtOS41OCw5LjQybDkuNTgsOS42N2wtMS4zOSwxLjI2bC04LjQ1LTguM0wwLDEwLjY4eiIvPiYjeGE7CQk8L2c+JiN4YTsJCTxnIGlkPSJzaGFwZTQ2NTctNiIgdHJhbnNmb3JtPSJ0cmFuc2xhdGUoMTQuODY4NSwtOC41MzE5NykiPiYjeGE7CQkJPHRpdGxlIGlkPSJ0aXRsZTk5MjQxIj5TaGVldC40NjU3PC90aXRsZT4mI3hhOwkJCTxwYXRoIGlkPSJwYXRoOTkyNDMiIGlua3NjYXBlOmNvbm5lY3Rvci1jdXJ2YXR1cmU9IjAiIHN0eWxlPSJmaWxsOiM3RkJBMDA7IiBkPSJNNC45MSwxOS4yMWMwLDEuMzgtMS4xMywyLjQtMi4zOSwyLjQgICAgIFMwLDIwLjQ2LDAsMTkuMjFjMC0xLjI2LDEuMTMtMi4zOCwyLjUyLTIuMzhTNC45MSwxNy45NSw0LjkxLDE5LjIxeiIvPiYjeGE7CQk8L2c+JiN4YTsJPC9nPiYjeGE7PC9nPiYjeGE7PC9zdmc+;" parent="1" vertex="1">
          <mxGeometry x="420" y="360" width="30" height="18.86" as="geometry" />
        </mxCell>
        <mxCell id="RgEp6XTYewznHyzpMlsy-20" value="App Service integration subnet" style="text;html=1;align=center;verticalAlign=middle;whiteSpace=wrap;rounded=0;" parent="1" vertex="1">
          <mxGeometry x="450" y="354.43" width="200" height="30" as="geometry" />
        </mxCell>
        <mxCell id="RgEp6XTYewznHyzpMlsy-22" value="" style="shape=image;verticalLabelPosition=bottom;labelBackgroundColor=#ffffff;verticalAlign=top;aspect=fixed;imageAspect=0;image=data:image/svg+xml,PHN2ZyB4bWxuczpjYz0iaHR0cDovL2NyZWF0aXZlY29tbW9ucy5vcmcvbnMjIiB4bWxuczpkYz0iaHR0cDovL3B1cmwub3JnL2RjL2VsZW1lbnRzLzEuMS8iIHhtbG5zOmlua3NjYXBlPSJodHRwOi8vd3d3Lmlua3NjYXBlLm9yZy9uYW1lc3BhY2VzL2lua3NjYXBlIiB4bWxuczpyZGY9Imh0dHA6Ly93d3cudzMub3JnLzE5OTkvMDIvMjItcmRmLXN5bnRheC1ucyMiIHhtbG5zOnNvZGlwb2RpPSJodHRwOi8vc29kaXBvZGkuc291cmNlZm9yZ2UubmV0L0RURC9zb2RpcG9kaS0wLmR0ZCIgeG1sbnM6c3ZnPSJodHRwOi8vd3d3LnczLm9yZy8yMDAwL3N2ZyIgeG1sbnM9Imh0dHA6Ly93d3cudzMub3JnLzIwMDAvc3ZnIiB4bWxuczp4bGluaz0iaHR0cDovL3d3dy53My5vcmcvMTk5OS94bGluayIgdmVyc2lvbj0iMS4xIiBpZD0ic3ZnOTkyNDkiIGlua3NjYXBlOnZlcnNpb249IjAuOTIuMyAoMjQwNTU0NiwgMjAxOC0wMy0xMSkiIHNvZGlwb2RpOmRvY25hbWU9InN1Ym5ldHMuc3ZnIiB4PSIwcHgiIHk9IjBweCIgdmlld0JveD0iMCAwIDM0Ljg0IDIxLjYxIiBzdHlsZT0iZW5hYmxlLWJhY2tncm91bmQ6bmV3IDAgMCAzNC44NCAyMS42MTsiIHhtbDpzcGFjZT0icHJlc2VydmUiPiYjeGE7PHNvZGlwb2RpOm5hbWVkdmlldyBib3JkZXJjb2xvcj0iIzY2NjY2NiIgYm9yZGVyb3BhY2l0eT0iMSIgZml0LW1hcmdpbi1ib3R0b209IjAiIGZpdC1tYXJnaW4tbGVmdD0iMCIgZml0LW1hcmdpbi1yaWdodD0iMCIgZml0LW1hcmdpbi10b3A9IjAiIGdyaWR0b2xlcmFuY2U9IjEwIiBndWlkZXRvbGVyYW5jZT0iMTAiIGlkPSJuYW1lZHZpZXc5OTI1MSIgaW5rc2NhcGU6Y3VycmVudC1sYXllcj0ic3ZnOTkyNDkiIGlua3NjYXBlOmN4PSI0MC45MTcxNDUiIGlua3NjYXBlOmN5PSIwLjYzNzUyNTg2IiBpbmtzY2FwZTpwYWdlb3BhY2l0eT0iMCIgaW5rc2NhcGU6cGFnZXNoYWRvdz0iMiIgaW5rc2NhcGU6d2luZG93LWhlaWdodD0iMTAxNyIgaW5rc2NhcGU6d2luZG93LW1heGltaXplZD0iMSIgaW5rc2NhcGU6d2luZG93LXdpZHRoPSIxOTIwIiBpbmtzY2FwZTp3aW5kb3cteD0iLTgiIGlua3NjYXBlOndpbmRvdy15PSItOCIgaW5rc2NhcGU6em9vbT0iMTAuNjM5NDk0IiBvYmplY3R0b2xlcmFuY2U9IjEwIiBwYWdlY29sb3I9IiNmZmZmZmYiIHNob3dncmlkPSJmYWxzZSI+JiN4YTsJPC9zb2RpcG9kaTpuYW1lZHZpZXc+JiN4YTs8ZyBpZD0iZzk5MjQ3IiB0cmFuc2Zvcm09InRyYW5zbGF0ZSgtNC4yMzMxNzQ5ZS01KSI+JiN4YTsJPHRpdGxlIGlkPSJ0aXRsZTk5MjI3Ij5QYWdlLTE8L3RpdGxlPiYjeGE7CTxnIGlkPSJncm91cDQ2NTQtMSI+JiN4YTsJCTx0aXRsZSBpZD0idGl0bGU5OTIyOSI+U3VibmV0czwvdGl0bGU+JiN4YTsJCTxnIGlkPSJzaGFwZTQ2NTUtMiIgdHJhbnNmb3JtPSJ0cmFuc2xhdGUoMjIuNjEzKSI+JiN4YTsJCQk8dGl0bGUgaWQ9InRpdGxlOTkyMzEiPlNoZWV0LjQ2NTU8L3RpdGxlPiYjeGE7CQkJPHBhdGggaWQ9InBhdGg5OTIzMyIgaW5rc2NhcGU6Y29ubmVjdG9yLWN1cnZhdHVyZT0iMCIgc3R5bGU9ImZpbGw6IzM5OTlDNjsiIGQ9Ik0xMi4yMywxMC42OEw5Ljg0LDguMjlMMS4zOSwwTDAsMS4yNmw5LjU4LDkuNDIgICAgIEwwLDIwLjM1bDEuMzksMS4yNmw4LjQ1LTguM0wxMi4yMywxMC42OHoiLz4mI3hhOwkJPC9nPiYjeGE7CQk8ZyBpZD0ic2hhcGU0NjU2LTQiPiYjeGE7CQkJPHRpdGxlIGlkPSJ0aXRsZTk5MjM2Ij5TaGVldC40NjU2PC90aXRsZT4mI3hhOwkJCTxwYXRoIGlkPSJwYXRoOTkyMzgiIGlua3NjYXBlOmNvbm5lY3Rvci1jdXJ2YXR1cmU9IjAiIHN0eWxlPSJmaWxsOiMzOTk5QzY7IiBkPSJNMCwxMC42OGwyLjM5LTIuMzlMMTAuODQsMGwxLjM5LDEuMjYgICAgIGwtOS41OCw5LjQybDkuNTgsOS42N2wtMS4zOSwxLjI2bC04LjQ1LTguM0wwLDEwLjY4eiIvPiYjeGE7CQk8L2c+JiN4YTsJCTxnIGlkPSJzaGFwZTQ2NTctNiIgdHJhbnNmb3JtPSJ0cmFuc2xhdGUoMTQuODY4NSwtOC41MzE5NykiPiYjeGE7CQkJPHRpdGxlIGlkPSJ0aXRsZTk5MjQxIj5TaGVldC40NjU3PC90aXRsZT4mI3hhOwkJCTxwYXRoIGlkPSJwYXRoOTkyNDMiIGlua3NjYXBlOmNvbm5lY3Rvci1jdXJ2YXR1cmU9IjAiIHN0eWxlPSJmaWxsOiM3RkJBMDA7IiBkPSJNNC45MSwxOS4yMWMwLDEuMzgtMS4xMywyLjQtMi4zOSwyLjQgICAgIFMwLDIwLjQ2LDAsMTkuMjFjMC0xLjI2LDEuMTMtMi4zOCwyLjUyLTIuMzhTNC45MSwxNy45NSw0LjkxLDE5LjIxeiIvPiYjeGE7CQk8L2c+JiN4YTsJPC9nPiYjeGE7PC9nPiYjeGE7PC9zdmc+;" parent="1" vertex="1">
          <mxGeometry x="406" y="460" width="30" height="18.86" as="geometry" />
        </mxCell>
        <mxCell id="RgEp6XTYewznHyzpMlsy-25" value="Private endpoint subnet" style="text;html=1;align=center;verticalAlign=middle;whiteSpace=wrap;rounded=0;" parent="1" vertex="1">
          <mxGeometry x="435" y="454.43" width="140" height="30" as="geometry" />
        </mxCell>
        <mxCell id="RgEp6XTYewznHyzpMlsy-26" value="&lt;div&gt;&lt;br&gt;&lt;/div&gt;&lt;div&gt;&lt;br&gt;&lt;/div&gt;&lt;div&gt;&lt;span style=&quot;background-color: initial;&quot;&gt;Virtual Interface&lt;/span&gt;&lt;br&gt;&lt;/div&gt;" style="rounded=0;whiteSpace=wrap;html=1;strokeColor=none;" parent="1" vertex="1">
          <mxGeometry x="711.75" y="360" width="120" height="60" as="geometry" />
        </mxCell>
        <mxCell id="RgEp6XTYewznHyzpMlsy-27" value="" style="shape=image;verticalLabelPosition=bottom;labelBackgroundColor=#ffffff;verticalAlign=top;aspect=fixed;imageAspect=0;image=data:image/svg+xml,PHN2ZyB4bWxuczpjYz0iaHR0cDovL2NyZWF0aXZlY29tbW9ucy5vcmcvbnMjIiB4bWxuczpkYz0iaHR0cDovL3B1cmwub3JnL2RjL2VsZW1lbnRzLzEuMS8iIHhtbG5zOmlua3NjYXBlPSJodHRwOi8vd3d3Lmlua3NjYXBlLm9yZy9uYW1lc3BhY2VzL2lua3NjYXBlIiB4bWxuczpyZGY9Imh0dHA6Ly93d3cudzMub3JnLzE5OTkvMDIvMjItcmRmLXN5bnRheC1ucyMiIHhtbG5zOnNvZGlwb2RpPSJodHRwOi8vc29kaXBvZGkuc291cmNlZm9yZ2UubmV0L0RURC9zb2RpcG9kaS0wLmR0ZCIgeG1sbnM6c3ZnPSJodHRwOi8vd3d3LnczLm9yZy8yMDAwL3N2ZyIgeG1sbnM9Imh0dHA6Ly93d3cudzMub3JnLzIwMDAvc3ZnIiB4bWxuczp4bGluaz0iaHR0cDovL3d3dy53My5vcmcvMTk5OS94bGluayIgdmVyc2lvbj0iMS4xIiBpZD0ic3ZnODc0MzQiIGlua3NjYXBlOnZlcnNpb249IjAuOTIuMyAoMjQwNTU0NiwgMjAxOC0wMy0xMSkiIHNvZGlwb2RpOmRvY25hbWU9Im5ldHdvcmtfaW50ZXJmYWNlLnN2ZyIgeD0iMHB4IiB5PSIwcHgiIHZpZXdCb3g9IjAgMCAzMy44OCAzNy44OSIgc3R5bGU9ImVuYWJsZS1iYWNrZ3JvdW5kOm5ldyAwIDAgMzMuODggMzcuODk7IiB4bWw6c3BhY2U9InByZXNlcnZlIj4mI3hhOzxzb2RpcG9kaTpuYW1lZHZpZXcgYm9yZGVyY29sb3I9IiM2NjY2NjYiIGJvcmRlcm9wYWNpdHk9IjEiIGZpdC1tYXJnaW4tYm90dG9tPSIwIiBmaXQtbWFyZ2luLWxlZnQ9IjAiIGZpdC1tYXJnaW4tcmlnaHQ9IjAiIGZpdC1tYXJnaW4tdG9wPSIwIiBncmlkdG9sZXJhbmNlPSIxMCIgZ3VpZGV0b2xlcmFuY2U9IjEwIiBpZD0ibmFtZWR2aWV3ODc0MzYiIGlua3NjYXBlOmN1cnJlbnQtbGF5ZXI9InN2Zzg3NDM0IiBpbmtzY2FwZTpjeD0iMTMuMTgxMzciIGlua3NjYXBlOmN5PSIyMC4yOTk0NTQiIGlua3NjYXBlOnBhZ2VvcGFjaXR5PSIwIiBpbmtzY2FwZTpwYWdlc2hhZG93PSIyIiBpbmtzY2FwZTp3aW5kb3ctaGVpZ2h0PSIxMDE3IiBpbmtzY2FwZTp3aW5kb3ctbWF4aW1pemVkPSIxIiBpbmtzY2FwZTp3aW5kb3ctd2lkdGg9IjE5MjAiIGlua3NjYXBlOndpbmRvdy14PSItOCIgaW5rc2NhcGU6d2luZG93LXk9Ii04IiBpbmtzY2FwZTp6b29tPSIxMi4xMzQ5MTIiIG9iamVjdHRvbGVyYW5jZT0iMTAiIHBhZ2Vjb2xvcj0iI2ZmZmZmZiIgc2hvd2dyaWQ9ImZhbHNlIj4mI3hhOwk8L3NvZGlwb2RpOm5hbWVkdmlldz4mI3hhOzxnIGlkPSJnODc0MzIiIHRyYW5zZm9ybT0idHJhbnNsYXRlKC0yLjQ5Mzc1NjFlLTUpIj4mI3hhOwk8dGl0bGUgaWQ9InRpdGxlODczMzciPlBhZ2UtMTwvdGl0bGU+JiN4YTsJPGcgaWQ9Imdyb3VwNDY5MC0xIj4mI3hhOwkJPHRpdGxlIGlkPSJ0aXRsZTg3MzM5Ij5OZXR3b3JrIEludGVyZmFjZTwvdGl0bGU+JiN4YTsJCTxnIGlkPSJzaGFwZTQ2OTEtMiI+JiN4YTsJCQk8dGl0bGUgaWQ9InRpdGxlODczNDEiPlNoZWV0LjQ2OTE8L3RpdGxlPiYjeGE7CQkJPHBhdGggaWQ9InBhdGg4NzM0MyIgaW5rc2NhcGU6Y29ubmVjdG9yLWN1cnZhdHVyZT0iMCIgc3R5bGU9ImZpbGw6IzdGQkEwMDsiIGQ9Ik0wLDB2MzcuODloMzAuMzVWMEgweiIvPiYjeGE7CQk8L2c+JiN4YTsJCTxnIGlkPSJzaGFwZTQ2OTItNCIgdHJhbnNmb3JtPSJ0cmFuc2xhdGUoMzAuMzQ3NCwtMjguMjI2KSI+JiN4YTsJCQk8dGl0bGUgaWQ9InRpdGxlODczNDYiPlNoZWV0LjQ2OTI8L3RpdGxlPiYjeGE7CQkJPHBhdGggaWQ9InBhdGg4NzM0OCIgaW5rc2NhcGU6Y29ubmVjdG9yLWN1cnZhdHVyZT0iMCIgc3R5bGU9ImZpbGw6I0ZDRDExNjsiIGQ9Ik0wLDMwLjk5djYuOWgzLjUzdi02LjlIMHoiLz4mI3hhOwkJPC9nPiYjeGE7CQk8ZyBpZD0ic2hhcGU0NjkzLTYiIHRyYW5zZm9ybT0idHJhbnNsYXRlKDMwLjM0NzQsLTguNDM3MTMpIj4mI3hhOwkJCTx0aXRsZSBpZD0idGl0bGU4NzM1MSI+U2hlZXQuNDY5MzwvdGl0bGU+JiN4YTsJCQk8cGF0aCBpZD0icGF0aDg3MzUzIiBpbmtzY2FwZTpjb25uZWN0b3ItY3VydmF0dXJlPSIwIiBzdHlsZT0iZmlsbDojRkNEMTE2OyIgZD0iTTAsMjAuNHYxNy40OWgzLjUzVjIwLjRIMHoiLz4mI3hhOwkJPC9nPiYjeGE7CQk8ZyBpZD0ic2hhcGU0Njk0LTgiIHRyYW5zZm9ybT0idHJhbnNsYXRlKDEyLjEwODMsLTI1LjE1OCkiPiYjeGE7CQkJPHRpdGxlIGlkPSJ0aXRsZTg3MzU2Ij5TaGVldC40Njk0PC90aXRsZT4mI3hhOwkJCTxwYXRoIGlkPSJwYXRoODczNTgiIGlua3NjYXBlOmNvbm5lY3Rvci1jdXJ2YXR1cmU9IjAiIHN0eWxlPSJmaWxsOiMyRDMyMzk7IiBkPSJNMCwyOC44NHY5LjA1aDE0LjQxdi05LjA1SDB6Ii8+JiN4YTsJCTwvZz4mI3hhOwkJPGcgaWQ9InNoYXBlNDY5NS0xMCIgdHJhbnNmb3JtPSJ0cmFuc2xhdGUoOS41MDI3MywtMy41MjgyNSkiPiYjeGE7CQkJPHRpdGxlIGlkPSJ0aXRsZTg3MzYxIj5TaGVldC40Njk1PC90aXRsZT4mI3hhOwkJCTxwYXRoIGlkPSJwYXRoODczNjMiIGlua3NjYXBlOmNvbm5lY3Rvci1jdXJ2YXR1cmU9IjAiIHN0eWxlPSJmaWxsOiMyRDMyMzk7IiBkPSJNMCwyNy42MXYxMC4yOGgyLjNWMjcuNjFIMHoiLz4mI3hhOwkJPC9nPiYjeGE7CQk8ZyBpZD0ic2hhcGU0Njk2LTEyIiB0cmFuc2Zvcm09InRyYW5zbGF0ZSgxMy40ODc3LC0zLjUyODI1KSI+JiN4YTsJCQk8dGl0bGUgaWQ9InRpdGxlODczNjYiPlNoZWV0LjQ2OTY8L3RpdGxlPiYjeGE7CQkJPHBhdGggaWQ9InBhdGg4NzM2OCIgaW5rc2NhcGU6Y29ubmVjdG9yLWN1cnZhdHVyZT0iMCIgc3R5bGU9ImZpbGw6IzJEMzIzOTsiIGQ9Ik0wLDI3LjYxdjEwLjI4aDIuNDVWMjcuNjFIMHoiLz4mI3hhOwkJPC9nPiYjeGE7CQk8ZyBpZD0ic2hhcGU0Njk3LTE0IiB0cmFuc2Zvcm09InRyYW5zbGF0ZSgyMi4zNzc0LC0zLjk4ODQ2KSI+JiN4YTsJCQk8dGl0bGUgaWQ9InRpdGxlODczNzEiPlNoZWV0LjQ2OTc8L3RpdGxlPiYjeGE7CQkJPHBhdGggaWQ9InBhdGg4NzM3MyIgaW5rc2NhcGU6Y29ubmVjdG9yLWN1cnZhdHVyZT0iMCIgc3R5bGU9ImZpbGw6I0U1RTVFNTsiIGQ9Ik0wLDI4LjUzdjkuMzZoMy41M3YtOS4zNkwwLDI4LjUzeiIvPiYjeGE7CQk8L2c+JiN4YTsJCTxnIGlkPSJzaGFwZTQ2OTgtMTYiIHRyYW5zZm9ybT0idHJhbnNsYXRlKDExLjM0MiwtMTcuNjQxMykiPiYjeGE7CQkJPHRpdGxlIGlkPSJ0aXRsZTg3Mzc2Ij5TaGVldC40Njk4PC90aXRsZT4mI3hhOwkJCTxwYXRoIGlkPSJwYXRoODczNzgiIGlua3NjYXBlOmNvbm5lY3Rvci1jdXJ2YXR1cmU9IjAiIHN0eWxlPSJmaWxsOiNFNUU1RTU7IiBkPSJNMCwzNS45N2MwLTEuMDUsMC44Mi0xLjkxLDEuODQtMS45MSAgICAgczEuODQsMC44NiwxLjg0LDEuOTFjMCwxLjA3LTAuODIsMS45Mi0xLjg0LDEuOTJTMCwzNy4wNCwwLDM1Ljk3eiIvPiYjeGE7CQk8L2c+JiN4YTsJCTxnIGlkPSJzaGFwZTQ2OTktMTgiIHRyYW5zZm9ybT0idHJhbnNsYXRlKDIxLjc2NDMsLTE5LjAyMTkpIj4mI3hhOwkJCTx0aXRsZSBpZD0idGl0bGU4NzM4MSI+U2hlZXQuNDY5OTwvdGl0bGU+JiN4YTsJCQk8cGF0aCBpZD0icGF0aDg3MzgzIiBpbmtzY2FwZTpjb25uZWN0b3ItY3VydmF0dXJlPSIwIiBzdHlsZT0iZmlsbDojNkU5RTBCOyIgZD0iTTAsMzEuNzV2Ni4xNGgxLjUzdi02LjE0SDB6Ii8+JiN4YTsJCTwvZz4mI3hhOwkJPGcgaWQ9InNoYXBlNDcwMC0yMCIgdHJhbnNmb3JtPSJ0cmFuc2xhdGUoMTguMjM5MSwtNy41MTY3MikiPiYjeGE7CQkJPHRpdGxlIGlkPSJ0aXRsZTg3Mzg2Ij5TaGVldC40NzAwPC90aXRsZT4mI3hhOwkJCTxwYXRoIGlkPSJwYXRoODczODgiIGlua3NjYXBlOmNvbm5lY3Rvci1jdXJ2YXR1cmU9IjAiIHN0eWxlPSJmaWxsOiM2RTlFMEI7IiBkPSJNMCwyNS4xMnYxMi43N2gxLjUzVjI1LjEySDB6Ii8+JiN4YTsJCTwvZz4mI3hhOwkJPGcgaWQ9InNoYXBlNDcwMS0yMiIgdHJhbnNmb3JtPSJ0cmFuc2xhdGUoNi4yODQwNiwtOS4zNTc1NCkiPiYjeGE7CQkJPHRpdGxlIGlkPSJ0aXRsZTg3MzkxIj5TaGVldC40NzAxPC90aXRsZT4mI3hhOwkJCTxwYXRoIGlkPSJwYXRoODczOTMiIGlua3NjYXBlOmNvbm5lY3Rvci1jdXJ2YXR1cmU9IjAiIHN0eWxlPSJmaWxsOiM2RTlFMEI7IiBkPSJNMCwxOC41NnYxOS4zM2gxLjUzVjE4LjU2SDB6Ii8+JiN4YTsJCTwvZz4mI3hhOwkJPGcgaWQ9InNoYXBlNDcwMi0yNCIgdHJhbnNmb3JtPSJ0cmFuc2xhdGUoMy4wNjU0LC01LjgyOTI5KSI+JiN4YTsJCQk8dGl0bGUgaWQ9InRpdGxlODczOTYiPlNoZWV0LjQ3MDI8L3RpdGxlPiYjeGE7CQkJPHBhdGggaWQ9InBhdGg4NzM5OCIgaW5rc2NhcGU6Y29ubmVjdG9yLWN1cnZhdHVyZT0iMCIgc3R5bGU9ImZpbGw6IzZFOUUwQjsiIGQ9Ik0wLDExLjgxdjI2LjA4aDEuNjlWMTEuODFIMHoiLz4mI3hhOwkJPC9nPiYjeGE7CQk8ZyBpZD0ic2hhcGU0NzAzLTI2IiB0cmFuc2Zvcm09InRyYW5zbGF0ZSgxOC4yMzkxLC0xOS4wMjE5KSI+JiN4YTsJCQk8dGl0bGUgaWQ9InRpdGxlODc0MDEiPlNoZWV0LjQ3MDM8L3RpdGxlPiYjeGE7CQkJPHBhdGggaWQ9InBhdGg4NzQwMyIgaW5rc2NhcGU6Y29ubmVjdG9yLWN1cnZhdHVyZT0iMCIgc3R5bGU9ImZpbGw6IzZFOUUwQjsiIGQ9Ik01LjA2LDM2LjM2djEuNTNIMHYtMS41M0g1LjA2eiIvPiYjeGE7CQk8L2c+JiN4YTsJCTxnIGlkPSJzaGFwZTQ3MDQtMjgiIHRyYW5zZm9ybT0idHJhbnNsYXRlKDE4LjM0NDMsLTcuNTE2NzIpIj4mI3hhOwkJCTx0aXRsZSBpZD0idGl0bGU4NzQwNiI+U2hlZXQuNDcwNDwvdGl0bGU+JiN4YTsJCQk8cGF0aCBpZD0icGF0aDg3NDA4IiBpbmtzY2FwZTpjb25uZWN0b3ItY3VydmF0dXJlPSIwIiBzdHlsZT0iZmlsbDojNkU5RTBCOyIgZD0iTTQuMDMsMzYuMzZ2MS41M0gwdi0xLjUzSDQuMDN6Ii8+JiN4YTsJCTwvZz4mI3hhOwkJPGcgaWQ9InNoYXBlNDcwNS0zMCIgdHJhbnNmb3JtPSJ0cmFuc2xhdGUoMy4wNjU0LC01LjgyOTI5KSI+JiN4YTsJCQk8dGl0bGUgaWQ9InRpdGxlODc0MTEiPlNoZWV0LjQ3MDU8L3RpdGxlPiYjeGE7CQkJPHBhdGggaWQ9InBhdGg4NzQxMyIgaW5rc2NhcGU6Y29ubmVjdG9yLWN1cnZhdHVyZT0iMCIgc3R5bGU9ImZpbGw6IzZFOUUwQjsiIGQ9Ik02LjQ0LDM2LjJ2MS42OUgwVjM2LjJINi40NHoiLz4mI3hhOwkJPC9nPiYjeGE7CQk8ZyBpZD0ic2hhcGU0NzA2LTMyIiB0cmFuc2Zvcm09InRyYW5zbGF0ZSg2LjI4NDA2LC05LjM1NzU0KSI+JiN4YTsJCQk8dGl0bGUgaWQ9InRpdGxlODc0MTYiPlNoZWV0LjQ3MDY8L3RpdGxlPiYjeGE7CQkJPHBhdGggaWQ9InBhdGg4NzQxOCIgaW5rc2NhcGU6Y29ubmVjdG9yLWN1cnZhdHVyZT0iMCIgc3R5bGU9ImZpbGw6IzZFOUUwQjsiIGQ9Ik0zLjIyLDM2LjJ2MS42OUgwVjM2LjJIMy4yMnoiLz4mI3hhOwkJPC9nPiYjeGE7CQk8ZyBpZD0ic2hhcGU0NzA3LTM0IiB0cmFuc2Zvcm09InRyYW5zbGF0ZSgzLjA2NTQsLTMwLjM3MzcpIj4mI3hhOwkJCTx0aXRsZSBpZD0idGl0bGU4NzQyMSI+U2hlZXQuNDcwNzwvdGl0bGU+JiN4YTsJCQk8cGF0aCBpZD0icGF0aDg3NDIzIiBpbmtzY2FwZTpjb25uZWN0b3ItY3VydmF0dXJlPSIwIiBzdHlsZT0iZmlsbDojNkU5RTBCOyIgZD0iTTkuMDQsMzYuMnYxLjY5SDBWMzYuMkg5LjA0eiIvPiYjeGE7CQk8L2c+JiN4YTsJCTxnIGlkPSJzaGFwZTQ3MDgtMzYiIHRyYW5zZm9ybT0idHJhbnNsYXRlKDYuMjg0MDYsLTI3LjE1MjIpIj4mI3hhOwkJCTx0aXRsZSBpZD0idGl0bGU4NzQyNiI+U2hlZXQuNDcwODwvdGl0bGU+JiN4YTsJCQk8cGF0aCBpZD0icGF0aDg3NDI4IiBpbmtzY2FwZTpjb25uZWN0b3ItY3VydmF0dXJlPSIwIiBzdHlsZT0iZmlsbDojNkU5RTBCOyIgZD0iTTUuODIsMzYuMzZ2MS41M0gwdi0xLjUzSDUuODJ6Ii8+JiN4YTsJCTwvZz4mI3hhOwk8L2c+JiN4YTs8L2c+JiN4YTs8L3N2Zz4=;direction=south;" parent="1" vertex="1">
          <mxGeometry x="750" y="363.16" width="30" height="26.84" as="geometry" />
        </mxCell>
        <mxCell id="RgEp6XTYewznHyzpMlsy-29" value="" style="rounded=0;whiteSpace=wrap;html=1;strokeColor=none;" parent="1" vertex="1">
          <mxGeometry x="420" y="484.43" width="100" height="60" as="geometry" />
        </mxCell>
        <mxCell id="RgEp6XTYewznHyzpMlsy-30" value="" style="rounded=0;whiteSpace=wrap;html=1;strokeColor=none;" parent="1" vertex="1">
          <mxGeometry x="598.5" y="484.43" width="100" height="60" as="geometry" />
        </mxCell>
        <mxCell id="RgEp6XTYewznHyzpMlsy-32" value="" style="rounded=0;whiteSpace=wrap;html=1;strokeColor=none;" parent="1" vertex="1">
          <mxGeometry x="725" y="484.43000000000006" width="100" height="60" as="geometry" />
        </mxCell>
        <mxCell id="RgEp6XTYewznHyzpMlsy-33" value="" style="shape=image;verticalLabelPosition=bottom;verticalAlign=top;imageAspect=0;aspect=fixed;image=data:image/svg+xml,PHN2ZyB4bWxuczpkYz0iaHR0cDovL3B1cmwub3JnL2RjL2VsZW1lbnRzLzEuMS8iIHhtbG5zOmNjPSJodHRwOi8vY3JlYXRpdmVjb21tb25zLm9yZy9ucyMiIHhtbG5zOnJkZj0iaHR0cDovL3d3dy53My5vcmcvMTk5OS8wMi8yMi1yZGYtc3ludGF4LW5zIyIgeG1sbnM6c3ZnPSJodHRwOi8vd3d3LnczLm9yZy8yMDAwL3N2ZyIgeG1sbnM9Imh0dHA6Ly93d3cudzMub3JnLzIwMDAvc3ZnIiB4bWxuczpzb2RpcG9kaT0iaHR0cDovL3NvZGlwb2RpLnNvdXJjZWZvcmdlLm5ldC9EVEQvc29kaXBvZGktMC5kdGQiIHhtbG5zOmlua3NjYXBlPSJodHRwOi8vd3d3Lmlua3NjYXBlLm9yZy9uYW1lc3BhY2VzL2lua3NjYXBlIiBjbGFzcz0iIiBpZD0iRnhTeW1ib2wwLTA4MyIgcm9sZT0icHJlc2VudGF0aW9uIiB2aWV3Qm94PSIwIDAgNTAgMzEuMjUwOTk5IiBmb2N1c2FibGU9ImZhbHNlIiB2ZXJzaW9uPSIxLjEiIHNvZGlwb2RpOmRvY25hbWU9ImFwaV9jb25uZWN0aW9ucy5zdmciIHdpZHRoPSI1MCIgaGVpZ2h0PSIzMS4yNTA5OTkiIGlua3NjYXBlOnZlcnNpb249IjAuOTIuMyAoMjQwNTU0NiwgMjAxOC0wMy0xMSkiPiYjeGE7ICA8bWV0YWRhdGEgaWQ9Im1ldGFkYXRhMTA0ODciPiYjeGE7ICAgIDxyZGY6UkRGPiYjeGE7ICAgICAgPGNjOldvcmsgcmRmOmFib3V0PSIiPiYjeGE7ICAgICAgICA8ZGM6Zm9ybWF0PmltYWdlL3N2Zyt4bWw8L2RjOmZvcm1hdD4mI3hhOyAgICAgICAgPGRjOnR5cGUgcmRmOnJlc291cmNlPSJodHRwOi8vcHVybC5vcmcvZGMvZGNtaXR5cGUvU3RpbGxJbWFnZSIvPiYjeGE7ICAgICAgICA8ZGM6dGl0bGUvPiYjeGE7ICAgICAgPC9jYzpXb3JrPiYjeGE7ICAgIDwvcmRmOlJERj4mI3hhOyAgPC9tZXRhZGF0YT4mI3hhOyAgPGRlZnMgaWQ9ImRlZnMxMDQ4NSIvPiYjeGE7ICA8c29kaXBvZGk6bmFtZWR2aWV3IHBhZ2Vjb2xvcj0iI2ZmZmZmZiIgYm9yZGVyY29sb3I9IiM2NjY2NjYiIGJvcmRlcm9wYWNpdHk9IjEiIG9iamVjdHRvbGVyYW5jZT0iMTAiIGdyaWR0b2xlcmFuY2U9IjEwIiBndWlkZXRvbGVyYW5jZT0iMTAiIGlua3NjYXBlOnBhZ2VvcGFjaXR5PSIwIiBpbmtzY2FwZTpwYWdlc2hhZG93PSIyIiBpbmtzY2FwZTp3aW5kb3ctd2lkdGg9IjE5MjAiIGlua3NjYXBlOndpbmRvdy1oZWlnaHQ9IjEwMTciIGlkPSJuYW1lZHZpZXcxMDQ4MyIgc2hvd2dyaWQ9ImZhbHNlIiBpbmtzY2FwZTp6b29tPSIxNyIgaW5rc2NhcGU6Y3g9IjI1IiBpbmtzY2FwZTpjeT0iMTUuNjI2IiBpbmtzY2FwZTp3aW5kb3cteD0iLTgiIGlua3NjYXBlOndpbmRvdy15PSItOCIgaW5rc2NhcGU6d2luZG93LW1heGltaXplZD0iMSIgaW5rc2NhcGU6Y3VycmVudC1sYXllcj0iRnhTeW1ib2wwLTA4MyIgZml0LW1hcmdpbi10b3A9IjAiIGZpdC1tYXJnaW4tbGVmdD0iMCIgZml0LW1hcmdpbi1yaWdodD0iMCIgZml0LW1hcmdpbi1ib3R0b209IjAiLz4mI3hhOyAgPGcgaWQ9ImcxMDQ4MCIgdHJhbnNmb3JtPSJ0cmFuc2xhdGUoMCwtOS4zNzUpIj4mI3hhOyAgICA8dGl0bGUgaWQ9InRpdGxlMTA0NzQiLz4mI3hhOyAgICA8cGF0aCBjbGFzcz0ibXNwb3J0YWxmeC1zdmctYzE0IiBkPSJtIDM5LjA2MywxOC43NSBjIDEuNTE0LDAgMi45MzQsMC4yODkgNC4yNiwwLjg2NyAxLjMyNiwwLjU3OCAyLjQ4MiwxLjM1OSAzLjQ2NywyLjM0NCAwLjk4NSwwLjk4NSAxLjc2NiwyLjE0IDIuMzQ0LDMuNDY3IDAuNTc4LDEuMzI3IDAuODY2LDIuNzQ2IDAuODY2LDQuMjYgMCwxLjUxNCAtMC4yODksMi45MzQgLTAuODY3LDQuMjYgLTAuNTc4LDEuMzI2IC0xLjM1OSwyLjQ4MiAtMi4zNDQsMy40NjcgLTAuOTg1LDAuOTg1IC0yLjE0LDEuNzY2IC0zLjQ2NywyLjM0NCAtMS4zMjcsMC41NzggLTIuNzQ3LDAuODY3IC00LjI2LDAuODY3IGggLTEyLjUgYyAtMS41MTQsMCAtMi45MzQsLTAuMjg5IC00LjI2LC0wLjg2NyAtMS4zMjYsLTAuNTc4IC0yLjQ4MiwtMS4zNTkgLTMuNDY3LC0yLjM0NCAtMC45ODUsLTAuOTg1IC0xLjc2NiwtMi4xNCAtMi4zNDQsLTMuNDY3IC0wLjU3OCwtMS4zMjcgLTAuODY3LC0yLjc0NyAtMC44NjcsLTQuMjYgMCwtMS41MTMgMC4yODksLTIuOTM0IDAuODY3LC00LjI2IDAuNTc4LC0xLjMyNiAxLjM1OSwtMi40ODIgMi4zNDQsLTMuNDY3IDAuOTg1LC0wLjk4NSAyLjE0LC0xLjc2NiAzLjQ2NywtMi4zNDQgMS4zMjcsLTAuNTc4IDIuNzQ3LC0wLjg2NyA0LjI2LC0wLjg2NyBoIDEuNTYzIHYgMy4xMjUgYyAtMS4yMzcsMCAtMi40MjEsMC4xNDIgLTMuNTUyLDAuNDI3IC0xLjEzMSwwLjI4NSAtMi4xMjgsMC43NDEgLTIuOTkxLDEuMzY3IC0wLjg2MywwLjYyNiAtMS41NSwxLjQzMiAtMi4wNjMsMi40MTcgLTAuNTEzLDAuOTg1IC0wLjc2OSwyLjE4NSAtMC43NjksMy42MDEgMCwxLjA3NCAwLjIwOCwyLjA4MyAwLjYyMywzLjAyNyAwLjQxNSwwLjk0NCAwLjk3NywxLjc3IDEuNjg1LDIuNDc4IDAuNzA4LDAuNzA4IDEuNTM0LDEuMjcgMi40NzgsMS42ODUgMC45NDQsMC40MTUgMS45NTMsMC42MjMgMy4wMjcsMC42MjMgaCAxMi41IGMgMS4wNzQsMCAyLjA4MywtMC4yMDggMy4wMjcsLTAuNjIzIDAuOTQ0LC0wLjQxNSAxLjc3LC0wLjk3NyAyLjQ3OCwtMS42ODUgMC43MDgsLTAuNzA4IDEuMjcsLTEuNTM0IDEuNjg1LC0yLjQ3OCAwLjQxNSwtMC45NDQgMC42MjMsLTEuOTUzIDAuNjIzLC0zLjAyNyAwLC0xLjQxNiAtMC4yNTYsLTIuNjE2IC0wLjc2OSwtMy42MDEgLTAuNTEzLC0wLjk4NSAtMS4yLC0xLjc5IC0yLjA2MywtMi40MTcgLTAuODYzLC0wLjYyNyAtMS44NiwtMS4wODIgLTIuOTkxLC0xLjM2NyAtMS4xMzEsLTAuMjg1IC0yLjMxNSwtMC40MjcgLTMuNTUyLC0wLjQyNyBWIDE4Ljc1IFoiIGlkPSJwYXRoMTA0NzYiIGlua3NjYXBlOmNvbm5lY3Rvci1jdXJ2YXR1cmU9IjAiIHN0eWxlPSJmaWxsOiM3ZmJhMDAiLz4mI3hhOyAgICA8cGF0aCBjbGFzcz0ibXNwb3J0YWxmeC1zdmctYzE1IiBkPSJtIDIxLjg3NSwzMS4yNSB2IC0zLjEyNSBjIDEuMjM3LDAgMi40MjEsLTAuMTQyIDMuNTUyLC0wLjQyNyAxLjEzMSwtMC4yODUgMi4xMjgsLTAuNzQxIDIuOTkxLC0xLjM2NyAwLjg2MywtMC42MjYgMS41NSwtMS40MzIgMi4wNjMsLTIuNDE3IDAuNTEzLC0wLjk4NSAwLjc2OSwtMi4xODUgMC43NjksLTMuNjAxIDAsLTEuMDc0IC0wLjIwOCwtMi4wODMgLTAuNjIzLC0zLjAyNyBDIDMwLjIxMiwxNi4zNDIgMjkuNjUsMTUuNTE2IDI4Ljk0MiwxNC44MDggMjguMjM0LDE0LjEgMjcuNDA4LDEzLjUzOCAyNi40NjQsMTMuMTIzIDI1LjUyLDEyLjcwOCAyNC41MTIsMTIuNSAyMy40MzgsMTIuNSBoIC0xMi41IGMgLTEuMDc0LDAgLTIuMDgzLDAuMjA4IC0zLjAyNywwLjYyMyAtMC45NDQsMC40MTUgLTEuNzcsMC45NzcgLTIuNDc4LDEuNjg1IC0wLjcwOCwwLjcwOCAtMS4yNywxLjUzNCAtMS42ODUsMi40NzggLTAuNDE1LDAuOTQ0IC0wLjYyMywxLjk1MyAtMC42MjMsMy4wMjcgMCwxLjQxNiAwLjI1NiwyLjYxNiAwLjc2OSwzLjYwMSAwLjUxMywwLjk4NSAxLjIsMS43OSAyLjA2MywyLjQxNyAwLjg2MywwLjYyNyAxLjg2LDEuMDgyIDIuOTkxLDEuMzY3IDEuMTMxLDAuMjg1IDIuMzE1LDAuNDI3IDMuNTUyLDAuNDI3IFYgMzEuMjUgSCAxMC45MzcgQyA5LjQyMywzMS4yNSA4LjAwMywzMC45NjEgNi42NzcsMzAuMzgzIDUuMzUxLDI5LjgwNSA0LjE5NSwyOS4wMjQgMy4yMSwyOC4wNCAyLjIyNSwyNy4wNTYgMS40NDQsMjUuOSAwLjg2NiwyNC41NzMgMC4yODgsMjMuMjQ2IDAsMjEuODI2IDAsMjAuMzEzIDAsMTguOCAwLjI4OSwxNy4zNzkgMC44NjcsMTYuMDUzIDEuNDQ1LDE0LjcyNyAyLjIyNiwxMy41NzEgMy4yMTEsMTIuNTg2IDQuMTk2LDExLjYwMSA1LjM1MSwxMC44MiA2LjY3OCwxMC4yNDIgOC4wMDUsOS42NjQgOS40MjUsOS4zNzUgMTAuOTM4LDkuMzc1IGggMTIuNSBjIDEuNTE0LDAgMi45MzQsMC4yODkgNC4yNiwwLjg2NyAxLjMyNiwwLjU3OCAyLjQ4MiwxLjM1OSAzLjQ2NywyLjM0NCAwLjk4NSwwLjk4NSAxLjc2NiwyLjE0IDIuMzQ0LDMuNDY3IDAuNTc4LDEuMzI3IDAuODY3LDIuNzQ3IDAuODY3LDQuMjYgMCwxLjUxMyAtMC4yODksMi45MzQgLTAuODY3LDQuMjYgLTAuNTc4LDEuMzI2IC0xLjM1OSwyLjQ4MiAtMi4zNDQsMy40NjcgLTAuOTg1LDAuOTg1IC0yLjE0LDEuNzY2IC0zLjQ2NywyLjM0NCAtMS4zMjcsMC41NzggLTIuNzQ3LDAuODY3IC00LjI2LDAuODY3IGggLTEuNTYzIHoiIGlkPSJwYXRoMTA0NzgiIGlua3NjYXBlOmNvbm5lY3Rvci1jdXJ2YXR1cmU9IjAiIHN0eWxlPSJmaWxsOiM1OWI0ZDkiLz4mI3hhOyAgPC9nPiYjeGE7PC9zdmc+;" parent="1" vertex="1">
          <mxGeometry x="450" y="490" width="30" height="18.6" as="geometry" />
        </mxCell>
        <mxCell id="RgEp6XTYewznHyzpMlsy-34" value="" style="shape=image;verticalLabelPosition=bottom;verticalAlign=top;imageAspect=0;aspect=fixed;image=data:image/svg+xml,PHN2ZyB4bWxuczpkYz0iaHR0cDovL3B1cmwub3JnL2RjL2VsZW1lbnRzLzEuMS8iIHhtbG5zOmNjPSJodHRwOi8vY3JlYXRpdmVjb21tb25zLm9yZy9ucyMiIHhtbG5zOnJkZj0iaHR0cDovL3d3dy53My5vcmcvMTk5OS8wMi8yMi1yZGYtc3ludGF4LW5zIyIgeG1sbnM6c3ZnPSJodHRwOi8vd3d3LnczLm9yZy8yMDAwL3N2ZyIgeG1sbnM9Imh0dHA6Ly93d3cudzMub3JnLzIwMDAvc3ZnIiB4bWxuczpzb2RpcG9kaT0iaHR0cDovL3NvZGlwb2RpLnNvdXJjZWZvcmdlLm5ldC9EVEQvc29kaXBvZGktMC5kdGQiIHhtbG5zOmlua3NjYXBlPSJodHRwOi8vd3d3Lmlua3NjYXBlLm9yZy9uYW1lc3BhY2VzL2lua3NjYXBlIiBjbGFzcz0iIiBpZD0iRnhTeW1ib2wwLTA4MyIgcm9sZT0icHJlc2VudGF0aW9uIiB2aWV3Qm94PSIwIDAgNTAgMzEuMjUwOTk5IiBmb2N1c2FibGU9ImZhbHNlIiB2ZXJzaW9uPSIxLjEiIHNvZGlwb2RpOmRvY25hbWU9ImFwaV9jb25uZWN0aW9ucy5zdmciIHdpZHRoPSI1MCIgaGVpZ2h0PSIzMS4yNTA5OTkiIGlua3NjYXBlOnZlcnNpb249IjAuOTIuMyAoMjQwNTU0NiwgMjAxOC0wMy0xMSkiPiYjeGE7ICA8bWV0YWRhdGEgaWQ9Im1ldGFkYXRhMTA0ODciPiYjeGE7ICAgIDxyZGY6UkRGPiYjeGE7ICAgICAgPGNjOldvcmsgcmRmOmFib3V0PSIiPiYjeGE7ICAgICAgICA8ZGM6Zm9ybWF0PmltYWdlL3N2Zyt4bWw8L2RjOmZvcm1hdD4mI3hhOyAgICAgICAgPGRjOnR5cGUgcmRmOnJlc291cmNlPSJodHRwOi8vcHVybC5vcmcvZGMvZGNtaXR5cGUvU3RpbGxJbWFnZSIvPiYjeGE7ICAgICAgICA8ZGM6dGl0bGUvPiYjeGE7ICAgICAgPC9jYzpXb3JrPiYjeGE7ICAgIDwvcmRmOlJERj4mI3hhOyAgPC9tZXRhZGF0YT4mI3hhOyAgPGRlZnMgaWQ9ImRlZnMxMDQ4NSIvPiYjeGE7ICA8c29kaXBvZGk6bmFtZWR2aWV3IHBhZ2Vjb2xvcj0iI2ZmZmZmZiIgYm9yZGVyY29sb3I9IiM2NjY2NjYiIGJvcmRlcm9wYWNpdHk9IjEiIG9iamVjdHRvbGVyYW5jZT0iMTAiIGdyaWR0b2xlcmFuY2U9IjEwIiBndWlkZXRvbGVyYW5jZT0iMTAiIGlua3NjYXBlOnBhZ2VvcGFjaXR5PSIwIiBpbmtzY2FwZTpwYWdlc2hhZG93PSIyIiBpbmtzY2FwZTp3aW5kb3ctd2lkdGg9IjE5MjAiIGlua3NjYXBlOndpbmRvdy1oZWlnaHQ9IjEwMTciIGlkPSJuYW1lZHZpZXcxMDQ4MyIgc2hvd2dyaWQ9ImZhbHNlIiBpbmtzY2FwZTp6b29tPSIxNyIgaW5rc2NhcGU6Y3g9IjI1IiBpbmtzY2FwZTpjeT0iMTUuNjI2IiBpbmtzY2FwZTp3aW5kb3cteD0iLTgiIGlua3NjYXBlOndpbmRvdy15PSItOCIgaW5rc2NhcGU6d2luZG93LW1heGltaXplZD0iMSIgaW5rc2NhcGU6Y3VycmVudC1sYXllcj0iRnhTeW1ib2wwLTA4MyIgZml0LW1hcmdpbi10b3A9IjAiIGZpdC1tYXJnaW4tbGVmdD0iMCIgZml0LW1hcmdpbi1yaWdodD0iMCIgZml0LW1hcmdpbi1ib3R0b209IjAiLz4mI3hhOyAgPGcgaWQ9ImcxMDQ4MCIgdHJhbnNmb3JtPSJ0cmFuc2xhdGUoMCwtOS4zNzUpIj4mI3hhOyAgICA8dGl0bGUgaWQ9InRpdGxlMTA0NzQiLz4mI3hhOyAgICA8cGF0aCBjbGFzcz0ibXNwb3J0YWxmeC1zdmctYzE0IiBkPSJtIDM5LjA2MywxOC43NSBjIDEuNTE0LDAgMi45MzQsMC4yODkgNC4yNiwwLjg2NyAxLjMyNiwwLjU3OCAyLjQ4MiwxLjM1OSAzLjQ2NywyLjM0NCAwLjk4NSwwLjk4NSAxLjc2NiwyLjE0IDIuMzQ0LDMuNDY3IDAuNTc4LDEuMzI3IDAuODY2LDIuNzQ2IDAuODY2LDQuMjYgMCwxLjUxNCAtMC4yODksMi45MzQgLTAuODY3LDQuMjYgLTAuNTc4LDEuMzI2IC0xLjM1OSwyLjQ4MiAtMi4zNDQsMy40NjcgLTAuOTg1LDAuOTg1IC0yLjE0LDEuNzY2IC0zLjQ2NywyLjM0NCAtMS4zMjcsMC41NzggLTIuNzQ3LDAuODY3IC00LjI2LDAuODY3IGggLTEyLjUgYyAtMS41MTQsMCAtMi45MzQsLTAuMjg5IC00LjI2LC0wLjg2NyAtMS4zMjYsLTAuNTc4IC0yLjQ4MiwtMS4zNTkgLTMuNDY3LC0yLjM0NCAtMC45ODUsLTAuOTg1IC0xLjc2NiwtMi4xNCAtMi4zNDQsLTMuNDY3IC0wLjU3OCwtMS4zMjcgLTAuODY3LC0yLjc0NyAtMC44NjcsLTQuMjYgMCwtMS41MTMgMC4yODksLTIuOTM0IDAuODY3LC00LjI2IDAuNTc4LC0xLjMyNiAxLjM1OSwtMi40ODIgMi4zNDQsLTMuNDY3IDAuOTg1LC0wLjk4NSAyLjE0LC0xLjc2NiAzLjQ2NywtMi4zNDQgMS4zMjcsLTAuNTc4IDIuNzQ3LC0wLjg2NyA0LjI2LC0wLjg2NyBoIDEuNTYzIHYgMy4xMjUgYyAtMS4yMzcsMCAtMi40MjEsMC4xNDIgLTMuNTUyLDAuNDI3IC0xLjEzMSwwLjI4NSAtMi4xMjgsMC43NDEgLTIuOTkxLDEuMzY3IC0wLjg2MywwLjYyNiAtMS41NSwxLjQzMiAtMi4wNjMsMi40MTcgLTAuNTEzLDAuOTg1IC0wLjc2OSwyLjE4NSAtMC43NjksMy42MDEgMCwxLjA3NCAwLjIwOCwyLjA4MyAwLjYyMywzLjAyNyAwLjQxNSwwLjk0NCAwLjk3NywxLjc3IDEuNjg1LDIuNDc4IDAuNzA4LDAuNzA4IDEuNTM0LDEuMjcgMi40NzgsMS42ODUgMC45NDQsMC40MTUgMS45NTMsMC42MjMgMy4wMjcsMC42MjMgaCAxMi41IGMgMS4wNzQsMCAyLjA4MywtMC4yMDggMy4wMjcsLTAuNjIzIDAuOTQ0LC0wLjQxNSAxLjc3LC0wLjk3NyAyLjQ3OCwtMS42ODUgMC43MDgsLTAuNzA4IDEuMjcsLTEuNTM0IDEuNjg1LC0yLjQ3OCAwLjQxNSwtMC45NDQgMC42MjMsLTEuOTUzIDAuNjIzLC0zLjAyNyAwLC0xLjQxNiAtMC4yNTYsLTIuNjE2IC0wLjc2OSwtMy42MDEgLTAuNTEzLC0wLjk4NSAtMS4yLC0xLjc5IC0yLjA2MywtMi40MTcgLTAuODYzLC0wLjYyNyAtMS44NiwtMS4wODIgLTIuOTkxLC0xLjM2NyAtMS4xMzEsLTAuMjg1IC0yLjMxNSwtMC40MjcgLTMuNTUyLC0wLjQyNyBWIDE4Ljc1IFoiIGlkPSJwYXRoMTA0NzYiIGlua3NjYXBlOmNvbm5lY3Rvci1jdXJ2YXR1cmU9IjAiIHN0eWxlPSJmaWxsOiM3ZmJhMDAiLz4mI3hhOyAgICA8cGF0aCBjbGFzcz0ibXNwb3J0YWxmeC1zdmctYzE1IiBkPSJtIDIxLjg3NSwzMS4yNSB2IC0zLjEyNSBjIDEuMjM3LDAgMi40MjEsLTAuMTQyIDMuNTUyLC0wLjQyNyAxLjEzMSwtMC4yODUgMi4xMjgsLTAuNzQxIDIuOTkxLC0xLjM2NyAwLjg2MywtMC42MjYgMS41NSwtMS40MzIgMi4wNjMsLTIuNDE3IDAuNTEzLC0wLjk4NSAwLjc2OSwtMi4xODUgMC43NjksLTMuNjAxIDAsLTEuMDc0IC0wLjIwOCwtMi4wODMgLTAuNjIzLC0zLjAyNyBDIDMwLjIxMiwxNi4zNDIgMjkuNjUsMTUuNTE2IDI4Ljk0MiwxNC44MDggMjguMjM0LDE0LjEgMjcuNDA4LDEzLjUzOCAyNi40NjQsMTMuMTIzIDI1LjUyLDEyLjcwOCAyNC41MTIsMTIuNSAyMy40MzgsMTIuNSBoIC0xMi41IGMgLTEuMDc0LDAgLTIuMDgzLDAuMjA4IC0zLjAyNywwLjYyMyAtMC45NDQsMC40MTUgLTEuNzcsMC45NzcgLTIuNDc4LDEuNjg1IC0wLjcwOCwwLjcwOCAtMS4yNywxLjUzNCAtMS42ODUsMi40NzggLTAuNDE1LDAuOTQ0IC0wLjYyMywxLjk1MyAtMC42MjMsMy4wMjcgMCwxLjQxNiAwLjI1NiwyLjYxNiAwLjc2OSwzLjYwMSAwLjUxMywwLjk4NSAxLjIsMS43OSAyLjA2MywyLjQxNyAwLjg2MywwLjYyNyAxLjg2LDEuMDgyIDIuOTkxLDEuMzY3IDEuMTMxLDAuMjg1IDIuMzE1LDAuNDI3IDMuNTUyLDAuNDI3IFYgMzEuMjUgSCAxMC45MzcgQyA5LjQyMywzMS4yNSA4LjAwMywzMC45NjEgNi42NzcsMzAuMzgzIDUuMzUxLDI5LjgwNSA0LjE5NSwyOS4wMjQgMy4yMSwyOC4wNCAyLjIyNSwyNy4wNTYgMS40NDQsMjUuOSAwLjg2NiwyNC41NzMgMC4yODgsMjMuMjQ2IDAsMjEuODI2IDAsMjAuMzEzIDAsMTguOCAwLjI4OSwxNy4zNzkgMC44NjcsMTYuMDUzIDEuNDQ1LDE0LjcyNyAyLjIyNiwxMy41NzEgMy4yMTEsMTIuNTg2IDQuMTk2LDExLjYwMSA1LjM1MSwxMC44MiA2LjY3OCwxMC4yNDIgOC4wMDUsOS42NjQgOS40MjUsOS4zNzUgMTAuOTM4LDkuMzc1IGggMTIuNSBjIDEuNTE0LDAgMi45MzQsMC4yODkgNC4yNiwwLjg2NyAxLjMyNiwwLjU3OCAyLjQ4MiwxLjM1OSAzLjQ2NywyLjM0NCAwLjk4NSwwLjk4NSAxLjc2NiwyLjE0IDIuMzQ0LDMuNDY3IDAuNTc4LDEuMzI3IDAuODY3LDIuNzQ3IDAuODY3LDQuMjYgMCwxLjUxMyAtMC4yODksMi45MzQgLTAuODY3LDQuMjYgLTAuNTc4LDEuMzI2IC0xLjM1OSwyLjQ4MiAtMi4zNDQsMy40NjcgLTAuOTg1LDAuOTg1IC0yLjE0LDEuNzY2IC0zLjQ2NywyLjM0NCAtMS4zMjcsMC41NzggLTIuNzQ3LDAuODY3IC00LjI2LDAuODY3IGggLTEuNTYzIHoiIGlkPSJwYXRoMTA0NzgiIGlua3NjYXBlOmNvbm5lY3Rvci1jdXJ2YXR1cmU9IjAiIHN0eWxlPSJmaWxsOiM1OWI0ZDkiLz4mI3hhOyAgPC9nPiYjeGE7PC9zdmc+;" parent="1" vertex="1">
          <mxGeometry x="633.5" y="490" width="30" height="18.6" as="geometry" />
        </mxCell>
        <mxCell id="RgEp6XTYewznHyzpMlsy-37" value="" style="shape=image;verticalLabelPosition=bottom;verticalAlign=top;imageAspect=0;aspect=fixed;image=data:image/svg+xml,PHN2ZyB4bWxuczpkYz0iaHR0cDovL3B1cmwub3JnL2RjL2VsZW1lbnRzLzEuMS8iIHhtbG5zOmNjPSJodHRwOi8vY3JlYXRpdmVjb21tb25zLm9yZy9ucyMiIHhtbG5zOnJkZj0iaHR0cDovL3d3dy53My5vcmcvMTk5OS8wMi8yMi1yZGYtc3ludGF4LW5zIyIgeG1sbnM6c3ZnPSJodHRwOi8vd3d3LnczLm9yZy8yMDAwL3N2ZyIgeG1sbnM9Imh0dHA6Ly93d3cudzMub3JnLzIwMDAvc3ZnIiB4bWxuczpzb2RpcG9kaT0iaHR0cDovL3NvZGlwb2RpLnNvdXJjZWZvcmdlLm5ldC9EVEQvc29kaXBvZGktMC5kdGQiIHhtbG5zOmlua3NjYXBlPSJodHRwOi8vd3d3Lmlua3NjYXBlLm9yZy9uYW1lc3BhY2VzL2lua3NjYXBlIiBjbGFzcz0iIiBpZD0iRnhTeW1ib2wwLTA4MyIgcm9sZT0icHJlc2VudGF0aW9uIiB2aWV3Qm94PSIwIDAgNTAgMzEuMjUwOTk5IiBmb2N1c2FibGU9ImZhbHNlIiB2ZXJzaW9uPSIxLjEiIHNvZGlwb2RpOmRvY25hbWU9ImFwaV9jb25uZWN0aW9ucy5zdmciIHdpZHRoPSI1MCIgaGVpZ2h0PSIzMS4yNTA5OTkiIGlua3NjYXBlOnZlcnNpb249IjAuOTIuMyAoMjQwNTU0NiwgMjAxOC0wMy0xMSkiPiYjeGE7ICA8bWV0YWRhdGEgaWQ9Im1ldGFkYXRhMTA0ODciPiYjeGE7ICAgIDxyZGY6UkRGPiYjeGE7ICAgICAgPGNjOldvcmsgcmRmOmFib3V0PSIiPiYjeGE7ICAgICAgICA8ZGM6Zm9ybWF0PmltYWdlL3N2Zyt4bWw8L2RjOmZvcm1hdD4mI3hhOyAgICAgICAgPGRjOnR5cGUgcmRmOnJlc291cmNlPSJodHRwOi8vcHVybC5vcmcvZGMvZGNtaXR5cGUvU3RpbGxJbWFnZSIvPiYjeGE7ICAgICAgICA8ZGM6dGl0bGUvPiYjeGE7ICAgICAgPC9jYzpXb3JrPiYjeGE7ICAgIDwvcmRmOlJERj4mI3hhOyAgPC9tZXRhZGF0YT4mI3hhOyAgPGRlZnMgaWQ9ImRlZnMxMDQ4NSIvPiYjeGE7ICA8c29kaXBvZGk6bmFtZWR2aWV3IHBhZ2Vjb2xvcj0iI2ZmZmZmZiIgYm9yZGVyY29sb3I9IiM2NjY2NjYiIGJvcmRlcm9wYWNpdHk9IjEiIG9iamVjdHRvbGVyYW5jZT0iMTAiIGdyaWR0b2xlcmFuY2U9IjEwIiBndWlkZXRvbGVyYW5jZT0iMTAiIGlua3NjYXBlOnBhZ2VvcGFjaXR5PSIwIiBpbmtzY2FwZTpwYWdlc2hhZG93PSIyIiBpbmtzY2FwZTp3aW5kb3ctd2lkdGg9IjE5MjAiIGlua3NjYXBlOndpbmRvdy1oZWlnaHQ9IjEwMTciIGlkPSJuYW1lZHZpZXcxMDQ4MyIgc2hvd2dyaWQ9ImZhbHNlIiBpbmtzY2FwZTp6b29tPSIxNyIgaW5rc2NhcGU6Y3g9IjI1IiBpbmtzY2FwZTpjeT0iMTUuNjI2IiBpbmtzY2FwZTp3aW5kb3cteD0iLTgiIGlua3NjYXBlOndpbmRvdy15PSItOCIgaW5rc2NhcGU6d2luZG93LW1heGltaXplZD0iMSIgaW5rc2NhcGU6Y3VycmVudC1sYXllcj0iRnhTeW1ib2wwLTA4MyIgZml0LW1hcmdpbi10b3A9IjAiIGZpdC1tYXJnaW4tbGVmdD0iMCIgZml0LW1hcmdpbi1yaWdodD0iMCIgZml0LW1hcmdpbi1ib3R0b209IjAiLz4mI3hhOyAgPGcgaWQ9ImcxMDQ4MCIgdHJhbnNmb3JtPSJ0cmFuc2xhdGUoMCwtOS4zNzUpIj4mI3hhOyAgICA8dGl0bGUgaWQ9InRpdGxlMTA0NzQiLz4mI3hhOyAgICA8cGF0aCBjbGFzcz0ibXNwb3J0YWxmeC1zdmctYzE0IiBkPSJtIDM5LjA2MywxOC43NSBjIDEuNTE0LDAgMi45MzQsMC4yODkgNC4yNiwwLjg2NyAxLjMyNiwwLjU3OCAyLjQ4MiwxLjM1OSAzLjQ2NywyLjM0NCAwLjk4NSwwLjk4NSAxLjc2NiwyLjE0IDIuMzQ0LDMuNDY3IDAuNTc4LDEuMzI3IDAuODY2LDIuNzQ2IDAuODY2LDQuMjYgMCwxLjUxNCAtMC4yODksMi45MzQgLTAuODY3LDQuMjYgLTAuNTc4LDEuMzI2IC0xLjM1OSwyLjQ4MiAtMi4zNDQsMy40NjcgLTAuOTg1LDAuOTg1IC0yLjE0LDEuNzY2IC0zLjQ2NywyLjM0NCAtMS4zMjcsMC41NzggLTIuNzQ3LDAuODY3IC00LjI2LDAuODY3IGggLTEyLjUgYyAtMS41MTQsMCAtMi45MzQsLTAuMjg5IC00LjI2LC0wLjg2NyAtMS4zMjYsLTAuNTc4IC0yLjQ4MiwtMS4zNTkgLTMuNDY3LC0yLjM0NCAtMC45ODUsLTAuOTg1IC0xLjc2NiwtMi4xNCAtMi4zNDQsLTMuNDY3IC0wLjU3OCwtMS4zMjcgLTAuODY3LC0yLjc0NyAtMC44NjcsLTQuMjYgMCwtMS41MTMgMC4yODksLTIuOTM0IDAuODY3LC00LjI2IDAuNTc4LC0xLjMyNiAxLjM1OSwtMi40ODIgMi4zNDQsLTMuNDY3IDAuOTg1LC0wLjk4NSAyLjE0LC0xLjc2NiAzLjQ2NywtMi4zNDQgMS4zMjcsLTAuNTc4IDIuNzQ3LC0wLjg2NyA0LjI2LC0wLjg2NyBoIDEuNTYzIHYgMy4xMjUgYyAtMS4yMzcsMCAtMi40MjEsMC4xNDIgLTMuNTUyLDAuNDI3IC0xLjEzMSwwLjI4NSAtMi4xMjgsMC43NDEgLTIuOTkxLDEuMzY3IC0wLjg2MywwLjYyNiAtMS41NSwxLjQzMiAtMi4wNjMsMi40MTcgLTAuNTEzLDAuOTg1IC0wLjc2OSwyLjE4NSAtMC43NjksMy42MDEgMCwxLjA3NCAwLjIwOCwyLjA4MyAwLjYyMywzLjAyNyAwLjQxNSwwLjk0NCAwLjk3NywxLjc3IDEuNjg1LDIuNDc4IDAuNzA4LDAuNzA4IDEuNTM0LDEuMjcgMi40NzgsMS42ODUgMC45NDQsMC40MTUgMS45NTMsMC42MjMgMy4wMjcsMC42MjMgaCAxMi41IGMgMS4wNzQsMCAyLjA4MywtMC4yMDggMy4wMjcsLTAuNjIzIDAuOTQ0LC0wLjQxNSAxLjc3LC0wLjk3NyAyLjQ3OCwtMS42ODUgMC43MDgsLTAuNzA4IDEuMjcsLTEuNTM0IDEuNjg1LC0yLjQ3OCAwLjQxNSwtMC45NDQgMC42MjMsLTEuOTUzIDAuNjIzLC0zLjAyNyAwLC0xLjQxNiAtMC4yNTYsLTIuNjE2IC0wLjc2OSwtMy42MDEgLTAuNTEzLC0wLjk4NSAtMS4yLC0xLjc5IC0yLjA2MywtMi40MTcgLTAuODYzLC0wLjYyNyAtMS44NiwtMS4wODIgLTIuOTkxLC0xLjM2NyAtMS4xMzEsLTAuMjg1IC0yLjMxNSwtMC40MjcgLTMuNTUyLC0wLjQyNyBWIDE4Ljc1IFoiIGlkPSJwYXRoMTA0NzYiIGlua3NjYXBlOmNvbm5lY3Rvci1jdXJ2YXR1cmU9IjAiIHN0eWxlPSJmaWxsOiM3ZmJhMDAiLz4mI3hhOyAgICA8cGF0aCBjbGFzcz0ibXNwb3J0YWxmeC1zdmctYzE1IiBkPSJtIDIxLjg3NSwzMS4yNSB2IC0zLjEyNSBjIDEuMjM3LDAgMi40MjEsLTAuMTQyIDMuNTUyLC0wLjQyNyAxLjEzMSwtMC4yODUgMi4xMjgsLTAuNzQxIDIuOTkxLC0xLjM2NyAwLjg2MywtMC42MjYgMS41NSwtMS40MzIgMi4wNjMsLTIuNDE3IDAuNTEzLC0wLjk4NSAwLjc2OSwtMi4xODUgMC43NjksLTMuNjAxIDAsLTEuMDc0IC0wLjIwOCwtMi4wODMgLTAuNjIzLC0zLjAyNyBDIDMwLjIxMiwxNi4zNDIgMjkuNjUsMTUuNTE2IDI4Ljk0MiwxNC44MDggMjguMjM0LDE0LjEgMjcuNDA4LDEzLjUzOCAyNi40NjQsMTMuMTIzIDI1LjUyLDEyLjcwOCAyNC41MTIsMTIuNSAyMy40MzgsMTIuNSBoIC0xMi41IGMgLTEuMDc0LDAgLTIuMDgzLDAuMjA4IC0zLjAyNywwLjYyMyAtMC45NDQsMC40MTUgLTEuNzcsMC45NzcgLTIuNDc4LDEuNjg1IC0wLjcwOCwwLjcwOCAtMS4yNywxLjUzNCAtMS42ODUsMi40NzggLTAuNDE1LDAuOTQ0IC0wLjYyMywxLjk1MyAtMC42MjMsMy4wMjcgMCwxLjQxNiAwLjI1NiwyLjYxNiAwLjc2OSwzLjYwMSAwLjUxMywwLjk4NSAxLjIsMS43OSAyLjA2MywyLjQxNyAwLjg2MywwLjYyNyAxLjg2LDEuMDgyIDIuOTkxLDEuMzY3IDEuMTMxLDAuMjg1IDIuMzE1LDAuNDI3IDMuNTUyLDAuNDI3IFYgMzEuMjUgSCAxMC45MzcgQyA5LjQyMywzMS4yNSA4LjAwMywzMC45NjEgNi42NzcsMzAuMzgzIDUuMzUxLDI5LjgwNSA0LjE5NSwyOS4wMjQgMy4yMSwyOC4wNCAyLjIyNSwyNy4wNTYgMS40NDQsMjUuOSAwLjg2NiwyNC41NzMgMC4yODgsMjMuMjQ2IDAsMjEuODI2IDAsMjAuMzEzIDAsMTguOCAwLjI4OSwxNy4zNzkgMC44NjcsMTYuMDUzIDEuNDQ1LDE0LjcyNyAyLjIyNiwxMy41NzEgMy4yMTEsMTIuNTg2IDQuMTk2LDExLjYwMSA1LjM1MSwxMC44MiA2LjY3OCwxMC4yNDIgOC4wMDUsOS42NjQgOS40MjUsOS4zNzUgMTAuOTM4LDkuMzc1IGggMTIuNSBjIDEuNTE0LDAgMi45MzQsMC4yODkgNC4yNiwwLjg2NyAxLjMyNiwwLjU3OCAyLjQ4MiwxLjM1OSAzLjQ2NywyLjM0NCAwLjk4NSwwLjk4NSAxLjc2NiwyLjE0IDIuMzQ0LDMuNDY3IDAuNTc4LDEuMzI3IDAuODY3LDIuNzQ3IDAuODY3LDQuMjYgMCwxLjUxMyAtMC4yODksMi45MzQgLTAuODY3LDQuMjYgLTAuNTc4LDEuMzI2IC0xLjM1OSwyLjQ4MiAtMi4zNDQsMy40NjcgLTAuOTg1LDAuOTg1IC0yLjE0LDEuNzY2IC0zLjQ2NywyLjM0NCAtMS4zMjcsMC41NzggLTIuNzQ3LDAuODY3IC00LjI2LDAuODY3IGggLTEuNTYzIHoiIGlkPSJwYXRoMTA0NzgiIGlua3NjYXBlOmNvbm5lY3Rvci1jdXJ2YXR1cmU9IjAiIHN0eWxlPSJmaWxsOiM1OWI0ZDkiLz4mI3hhOyAgPC9nPiYjeGE7PC9zdmc+;" parent="1" vertex="1">
          <mxGeometry x="760" y="490" width="30" height="18.6" as="geometry" />
        </mxCell>
        <mxCell id="RgEp6XTYewznHyzpMlsy-40" value="App Service private endpoint" style="text;html=1;align=center;verticalAlign=middle;whiteSpace=wrap;rounded=0;fontSize=11;" parent="1" vertex="1">
          <mxGeometry x="413.5" y="514.43" width="113" height="30" as="geometry" />
        </mxCell>
        <mxCell id="RgEp6XTYewznHyzpMlsy-41" value="Database private endpoint" style="text;html=1;align=center;verticalAlign=middle;whiteSpace=wrap;rounded=0;fontSize=11;" parent="1" vertex="1">
          <mxGeometry x="592" y="514.43" width="113" height="30" as="geometry" />
        </mxCell>
        <mxCell id="RgEp6XTYewznHyzpMlsy-43" value="Search private endpoint" style="text;html=1;align=center;verticalAlign=middle;whiteSpace=wrap;rounded=0;fontSize=11;" parent="1" vertex="1">
          <mxGeometry x="718.5" y="514.43" width="106.5" height="30" as="geometry" />
        </mxCell>
        <mxCell id="RgEp6XTYewznHyzpMlsy-44" value="" style="shape=image;verticalLabelPosition=bottom;labelBackgroundColor=#ffffff;verticalAlign=top;aspect=fixed;imageAspect=0;image=data:image/svg+xml,PHN2ZyB4bWxuczpkYz0iaHR0cDovL3B1cmwub3JnL2RjL2VsZW1lbnRzLzEuMS8iIHhtbG5zOmNjPSJodHRwOi8vY3JlYXRpdmVjb21tb25zLm9yZy9ucyMiIHhtbG5zOnJkZj0iaHR0cDovL3d3dy53My5vcmcvMTk5OS8wMi8yMi1yZGYtc3ludGF4LW5zIyIgeG1sbnM6c3ZnPSJodHRwOi8vd3d3LnczLm9yZy8yMDAwL3N2ZyIgeG1sbnM9Imh0dHA6Ly93d3cudzMub3JnLzIwMDAvc3ZnIiB4bWxuczpzb2RpcG9kaT0iaHR0cDovL3NvZGlwb2RpLnNvdXJjZWZvcmdlLm5ldC9EVEQvc29kaXBvZGktMC5kdGQiIHhtbG5zOmlua3NjYXBlPSJodHRwOi8vd3d3Lmlua3NjYXBlLm9yZy9uYW1lc3BhY2VzL2lua3NjYXBlIiB2ZXJzaW9uPSIxLjEiIGlkPSJzdmcxMDEzMjkiIGlua3NjYXBlOnZlcnNpb249IjAuOTIuMyAoMjQwNTU0NiwgMjAxOC0wMy0xMSkiIHNvZGlwb2RpOmRvY25hbWU9InZpcnR1YWxfbmV0d29ya192bmV0LnN2ZyIgeD0iMHB4IiB5PSIwcHgiIHZpZXdCb3g9IjAgMCAxNDguMTExMyA4NC45MzA2NDgiIHhtbDpzcGFjZT0icHJlc2VydmUiIHdpZHRoPSIxNDguMTExMyIgaGVpZ2h0PSI4NC45MzA2NDkiPjxtZXRhZGF0YSBpZD0ibWV0YWRhdGE0MTk0Ij48cmRmOlJERj48Y2M6V29yayByZGY6YWJvdXQ9IiI+PGRjOmZvcm1hdD5pbWFnZS9zdmcreG1sPC9kYzpmb3JtYXQ+PGRjOnR5cGUgcmRmOnJlc291cmNlPSJodHRwOi8vcHVybC5vcmcvZGMvZGNtaXR5cGUvU3RpbGxJbWFnZSIvPjxkYzp0aXRsZS8+PC9jYzpXb3JrPjwvcmRmOlJERj48L21ldGFkYXRhPjxkZWZzIGlkPSJkZWZzNDE5MiI+JiN4YTsJJiN4YTsmI3hhOwkmI3hhOyYjeGE7CSYjeGE7JiN4YTsJJiN4YTsmI3hhOwkmI3hhOyYjeGE7CQkmI3hhOwkmI3hhOwkJJiN4YTsJJiN4YTsJCSYjeGE7CSYjeGE7CQkmI3hhOwkmI3hhOwkJJiN4YTsJPC9kZWZzPiYjeGE7PGZpbHRlciBpZD0iZmlsdGVyXzIiPiYjeGE7CTxmZUdhdXNzaWFuQmx1ciBpZD0iZmVHYXVzc2lhbkJsdXIxMDEyNzgiIHN0ZERldmlhdGlvbj0iMiIvPiYjeGE7PC9maWx0ZXI+JiN4YTs8c29kaXBvZGk6bmFtZWR2aWV3IGJvcmRlcmNvbG9yPSIjNjY2NjY2IiBib3JkZXJvcGFjaXR5PSIxIiBmaXQtbWFyZ2luLWJvdHRvbT0iMCIgZml0LW1hcmdpbi1sZWZ0PSIwIiBmaXQtbWFyZ2luLXJpZ2h0PSIwIiBmaXQtbWFyZ2luLXRvcD0iMCIgZ3JpZHRvbGVyYW5jZT0iMTAiIGd1aWRldG9sZXJhbmNlPSIxMCIgaWQ9Im5hbWVkdmlldzEwMTMzMSIgaW5rc2NhcGU6Y3VycmVudC1sYXllcj0ic3ZnMTAxMzI5IiBpbmtzY2FwZTpjeD0iNDAuMTgyNTg3IiBpbmtzY2FwZTpjeT0iMTguNTU3ODYzIiBpbmtzY2FwZTpwYWdlb3BhY2l0eT0iMCIgaW5rc2NhcGU6cGFnZXNoYWRvdz0iMiIgaW5rc2NhcGU6d2luZG93LWhlaWdodD0iMTAxNyIgaW5rc2NhcGU6d2luZG93LW1heGltaXplZD0iMSIgaW5rc2NhcGU6d2luZG93LXdpZHRoPSIxOTIwIiBpbmtzY2FwZTp3aW5kb3cteD0iLTgiIGlua3NjYXBlOndpbmRvdy15PSItOCIgaW5rc2NhcGU6em9vbT0iMi45NzE3MDUzIiBvYmplY3R0b2xlcmFuY2U9IjEwIiBwYWdlY29sb3I9IiNmZmZmZmYiIHNob3dncmlkPSJmYWxzZSI+JiN4YTsJPC9zb2RpcG9kaTpuYW1lZHZpZXc+JiN4YTsmI3hhOzxwYXRoIGlkPSJwYXRoMTAxMjkxIiBpbmtzY2FwZTpjb25uZWN0b3ItY3VydmF0dXJlPSIwIiBzdHlsZT0iZmlsbDojMzk5OWM2IiBkPSJtIDE0Ny4xMTA2NSw0NC41OSBjIDEuNDgsLTEuNDggMS4xOCwtMy44NCAwLC01LjMyIGwgLTcuMSwtNy4xIC0zMS45NCwtMzEuMDYgYyAtMS40OCwtMS40OCAtMy41NSwtMS40OCAtNS4wMywwIC0xLjQ4LDEuNDggLTEuNzcsMy44NSAwLDUuMzMgbCAzMy40MiwzMi44MyBjIDEuNDgsMS40OCAxLjQ4LDMuODQgMCw1LjMyIGwgLTM0LjAxLDM0LjAxIGMgLTEuNDgsMS40OCAtMS40OCwzLjg1IDAsNS4zMyAxLjQ4LDEuNDggMy44NCwxLjE4IDUuMDMsMCBsIDMxLjY0LC0zMS4zNSBjIDAsMCAwLDAgMC4zLC0wLjMgeiIvPiYjeGE7JiN4YTs8cGF0aCBpZD0icGF0aDEwMTI5OSIgaW5rc2NhcGU6Y29ubmVjdG9yLWN1cnZhdHVyZT0iMCIgc3R5bGU9ImZpbGw6IzM5OTljNiIgZD0ibSAxLjAwMDY1MjEsNDQuNTkgYyAtMS40OCwtMS40OCAtMS4xOCwtMy44NCAwLC01LjMyIGwgNy4xLC03LjEgTCA0MC4wNDA2NTIsMS4xMSBjIDEuNDgsLTEuNDggMy41NSwtMS40OCA1LjAzLDAgMS40OCwxLjQ4IDEuNzcsMy44NSAwLDUuMzMgbCAtMzIuODMsMzIuODMgYyAtMS40OCwxLjQ4IC0xLjQ4LDMuODQgMCw1LjMyIGwgMzMuNDIsMzQuMDEgYyAxLjQ4LDEuNDggMS40OCwzLjg1IDAsNS4zMyAtMS40OCwxLjQ4IC0zLjg0LDEuMTggLTUuMDMsMCBMIDguMzkwNjUyMSw1Mi44NyBjIDAsMCAwLDAgLTAuMjksLTAuMjkgeiIvPiYjeGE7JiN4YTs8cGF0aCBpZD0icGF0aDEwMTMwNyIgaW5rc2NhcGU6Y29ubmVjdG9yLWN1cnZhdHVyZT0iMCIgc3R5bGU9ImZpbGw6IzdmYmEwMCIgZD0ibSA1My45NDA2NTIsNDEuOTMgYyAwLDUuNjIgLTQuNzMsOS43NiAtOS43Niw5Ljc2IC01LjAzLDAgLTEwLjM1LC00Ljc0IC0xMC4zNSwtOS43NiAwLC01LjAzIDQuMTQsLTkuNzYgMTAuMzUsLTkuNzYgNS45MiwwIDkuNzYsNC43MyA5Ljc2LDkuNzYgeiIvPiYjeGE7JiN4YTs8cGF0aCBpZD0icGF0aDEwMTMxNSIgaW5rc2NhcGU6Y29ubmVjdG9yLWN1cnZhdHVyZT0iMCIgc3R5bGU9ImZpbGw6IzdmYmEwMCIgZD0ibSA4My44MTA2NTIsNDEuOTMgYyAwLDUuNjIgLTQuNzMsOS43NiAtOS43Niw5Ljc2IC01LjAzLDAgLTEwLjM1LC00Ljc0IC0xMC4zNSwtOS43NiAwLC01LjAzIDQuNzMsLTkuNzYgMTAuMzUsLTkuNzYgNS42MiwwIDkuNzYsNC43MyA5Ljc2LDkuNzYgeiIvPiYjeGE7JiN4YTs8Y2lyY2xlIGlkPSJlbGxpcHNlMTAxMzIzIiBzdHlsZT0iZmlsbDojN2ZiYTAwIiBjeD0iMTA0LjIyMDY1IiBjeT0iNDEuOTMiIHI9IjkuNzYwMDAwMiIvPiYjeGE7PC9zdmc+;" parent="1" vertex="1">
          <mxGeometry x="230" y="330" width="30" height="17.23" as="geometry" />
        </mxCell>
        <mxCell id="RgEp6XTYewznHyzpMlsy-46" value="Virtual Network" style="text;html=1;align=center;verticalAlign=middle;whiteSpace=wrap;rounded=0;" parent="1" vertex="1">
          <mxGeometry x="240" y="324.43" width="140" height="30" as="geometry" />
        </mxCell>
        <mxCell id="RgEp6XTYewznHyzpMlsy-47" value="" style="endArrow=classic;html=1;rounded=0;" parent="1" edge="1">
          <mxGeometry width="50" height="50" relative="1" as="geometry">
            <mxPoint x="469.5" y="544.4300000000001" as="sourcePoint" />
            <mxPoint x="469.5" y="614.4300000000001" as="targetPoint" />
          </mxGeometry>
        </mxCell>
        <mxCell id="RgEp6XTYewznHyzpMlsy-48" value="" style="endArrow=classic;html=1;rounded=0;" parent="1" edge="1">
          <mxGeometry width="50" height="50" relative="1" as="geometry">
            <mxPoint x="648" y="546" as="sourcePoint" />
            <mxPoint x="648" y="616" as="targetPoint" />
          </mxGeometry>
        </mxCell>
        <mxCell id="RgEp6XTYewznHyzpMlsy-50" value="" style="endArrow=classic;html=1;rounded=0;" parent="1" edge="1">
          <mxGeometry width="50" height="50" relative="1" as="geometry">
            <mxPoint x="774.5" y="544.4300000000001" as="sourcePoint" />
            <mxPoint x="774.5" y="614.4300000000001" as="targetPoint" />
          </mxGeometry>
        </mxCell>
        <mxCell id="RgEp6XTYewznHyzpMlsy-51" value="" style="rounded=0;whiteSpace=wrap;html=1;fillColor=#f5f5f5;fontColor=#333333;strokeColor=#666666;" parent="1" vertex="1">
          <mxGeometry x="360" y="616" width="230" height="155" as="geometry" />
        </mxCell>
        <mxCell id="RgEp6XTYewznHyzpMlsy-52" value="" style="image;aspect=fixed;html=1;points=[];align=center;fontSize=12;image=img/lib/azure2/identity/Managed_Identities.svg;" parent="1" vertex="1">
          <mxGeometry x="385.55" y="620" width="30.91" height="30" as="geometry" />
        </mxCell>
        <mxCell id="RgEp6XTYewznHyzpMlsy-53" value="Managed Identity" style="text;html=1;align=center;verticalAlign=middle;whiteSpace=wrap;rounded=0;" parent="1" vertex="1">
          <mxGeometry x="366" y="650" width="70" height="30" as="geometry" />
        </mxCell>
        <mxCell id="RgEp6XTYewznHyzpMlsy-55" value="" style="image;aspect=fixed;html=1;points=[];align=center;fontSize=12;image=img/lib/azure2/app_services/App_Services.svg;" parent="1" vertex="1">
          <mxGeometry x="453" y="680" width="44" height="44" as="geometry" />
        </mxCell>
        <mxCell id="RgEp6XTYewznHyzpMlsy-56" value="App Service" style="text;html=1;align=center;verticalAlign=middle;whiteSpace=wrap;rounded=0;" parent="1" vertex="1">
          <mxGeometry x="445" y="730" width="60" height="30" as="geometry" />
        </mxCell>
        <mxCell id="RgEp6XTYewznHyzpMlsy-60" value="" style="endArrow=none;html=1;rounded=0;entryX=0.48;entryY=0.232;entryDx=0;entryDy=0;entryPerimeter=0;" parent="1" edge="1">
          <mxGeometry width="50" height="50" relative="1" as="geometry">
            <mxPoint x="580" y="616" as="sourcePoint" />
            <mxPoint x="580" y="389" as="targetPoint" />
            <Array as="points">
              <mxPoint x="580.5" y="532" />
            </Array>
          </mxGeometry>
        </mxCell>
        <mxCell id="RgEp6XTYewznHyzpMlsy-61" value="" style="endArrow=classic;html=1;rounded=0;" parent="1" edge="1">
          <mxGeometry width="50" height="50" relative="1" as="geometry">
            <mxPoint x="580" y="389.00000000000006" as="sourcePoint" />
            <mxPoint x="708" y="389.16" as="targetPoint" />
          </mxGeometry>
        </mxCell>
        <mxCell id="RgEp6XTYewznHyzpMlsy-62" value="" style="endArrow=classic;html=1;rounded=0;" parent="1" edge="1">
          <mxGeometry width="50" height="50" relative="1" as="geometry">
            <mxPoint x="771" y="419" as="sourcePoint" />
            <mxPoint x="771.25" y="485" as="targetPoint" />
          </mxGeometry>
        </mxCell>
        <mxCell id="RgEp6XTYewznHyzpMlsy-63" value="" style="endArrow=none;html=1;rounded=0;" parent="1" edge="1">
          <mxGeometry width="50" height="50" relative="1" as="geometry">
            <mxPoint x="650" y="439" as="sourcePoint" />
            <mxPoint x="900" y="440" as="targetPoint" />
          </mxGeometry>
        </mxCell>
        <mxCell id="RgEp6XTYewznHyzpMlsy-64" value="" style="endArrow=classic;html=1;rounded=0;" parent="1" edge="1">
          <mxGeometry width="50" height="50" relative="1" as="geometry">
            <mxPoint x="650" y="440" as="sourcePoint" />
            <mxPoint x="650" y="484.43" as="targetPoint" />
          </mxGeometry>
        </mxCell>
        <mxCell id="RgEp6XTYewznHyzpMlsy-65" value="" style="endArrow=classic;html=1;rounded=0;" parent="1" edge="1">
          <mxGeometry width="50" height="50" relative="1" as="geometry">
            <mxPoint x="900" y="440" as="sourcePoint" />
            <mxPoint x="900" y="484.43" as="targetPoint" />
          </mxGeometry>
        </mxCell>
        <mxCell id="RgEp6XTYewznHyzpMlsy-67" value="" style="rounded=0;whiteSpace=wrap;html=1;fillColor=#f5f5f5;fontColor=#333333;strokeColor=#666666;" parent="1" vertex="1">
          <mxGeometry x="610.25" y="616" width="76.5" height="95" as="geometry" />
        </mxCell>
        <mxCell id="KM5gHg42rN1_D-O26ENq-5" style="edgeStyle=orthogonalEdgeStyle;rounded=0;orthogonalLoop=1;jettySize=auto;html=1;exitX=0.75;exitY=1;exitDx=0;exitDy=0;entryX=0.5;entryY=0;entryDx=0;entryDy=0;" edge="1" parent="1" source="RgEp6XTYewznHyzpMlsy-69" target="KM5gHg42rN1_D-O26ENq-2">
          <mxGeometry relative="1" as="geometry" />
        </mxCell>
        <mxCell id="RgEp6XTYewznHyzpMlsy-69" value="" style="rounded=0;whiteSpace=wrap;html=1;fillColor=#f5f5f5;fontColor=#333333;strokeColor=#666666;" parent="1" vertex="1">
          <mxGeometry x="736.75" y="615" width="76.5" height="95" as="geometry" />
        </mxCell>
        <mxCell id="RgEp6XTYewznHyzpMlsy-70" value="" style="shape=image;verticalLabelPosition=bottom;labelBackgroundColor=#ffffff;verticalAlign=top;aspect=fixed;imageAspect=0;image=data:image/svg+xml,PHN2ZyB4bWxuczpjYz0iaHR0cDovL2NyZWF0aXZlY29tbW9ucy5vcmcvbnMjIiB4bWxuczpkYz0iaHR0cDovL3B1cmwub3JnL2RjL2VsZW1lbnRzLzEuMS8iIHhtbG5zOmlua3NjYXBlPSJodHRwOi8vd3d3Lmlua3NjYXBlLm9yZy9uYW1lc3BhY2VzL2lua3NjYXBlIiB4bWxuczpyZGY9Imh0dHA6Ly93d3cudzMub3JnLzE5OTkvMDIvMjItcmRmLXN5bnRheC1ucyMiIHhtbG5zOnNvZGlwb2RpPSJodHRwOi8vc29kaXBvZGkuc291cmNlZm9yZ2UubmV0L0RURC9zb2RpcG9kaS0wLmR0ZCIgeG1sbnM6c3ZnPSJodHRwOi8vd3d3LnczLm9yZy8yMDAwL3N2ZyIgeG1sbnM9Imh0dHA6Ly93d3cudzMub3JnLzIwMDAvc3ZnIiB4bWxuczp4bGluaz0iaHR0cDovL3d3dy53My5vcmcvMTk5OS94bGluayIgdmVyc2lvbj0iMS4xIiBpZD0ic3ZnNzQzMTIiIGlua3NjYXBlOnZlcnNpb249IjAuOTIuMyAoMjQwNTU0NiwgMjAxOC0wMy0xMSkiIHNvZGlwb2RpOmRvY25hbWU9ImNvc21vZGIuc3ZnIiB4PSIwcHgiIHk9IjBweCIgdmlld0JveD0iMCAwIDM3LjQ3IDM0LjUxIiBzdHlsZT0iZW5hYmxlLWJhY2tncm91bmQ6bmV3IDAgMCAzNy40NyAzNC41MTsiIHhtbDpzcGFjZT0icHJlc2VydmUiPiYjeGE7PHNvZGlwb2RpOm5hbWVkdmlldyBib3JkZXJjb2xvcj0iIzY2NjY2NiIgYm9yZGVyb3BhY2l0eT0iMSIgZml0LW1hcmdpbi1ib3R0b209IjAiIGZpdC1tYXJnaW4tbGVmdD0iMCIgZml0LW1hcmdpbi1yaWdodD0iMCIgZml0LW1hcmdpbi10b3A9IjAiIGdyaWR0b2xlcmFuY2U9IjEwIiBndWlkZXRvbGVyYW5jZT0iMTAiIGlkPSJuYW1lZHZpZXc3NDMxNCIgaW5rc2NhcGU6Y3VycmVudC1sYXllcj0ic3ZnNzQzMTIiIGlua3NjYXBlOmN4PSIzNi4xMzQwNTciIGlua3NjYXBlOmN5PSIyMS44MTg5OSIgaW5rc2NhcGU6cGFnZW9wYWNpdHk9IjAiIGlua3NjYXBlOnBhZ2VzaGFkb3c9IjIiIGlua3NjYXBlOndpbmRvdy1oZWlnaHQ9IjEwMTciIGlua3NjYXBlOndpbmRvdy1tYXhpbWl6ZWQ9IjEiIGlua3NjYXBlOndpbmRvdy13aWR0aD0iMTkyMCIgaW5rc2NhcGU6d2luZG93LXg9Ii04IiBpbmtzY2FwZTp3aW5kb3cteT0iLTgiIGlua3NjYXBlOnpvb209IjEyLjc3MjExNiIgb2JqZWN0dG9sZXJhbmNlPSIxMCIgcGFnZWNvbG9yPSIjZmZmZmZmIiBzaG93Z3JpZD0iZmFsc2UiPiYjeGE7CTwvc29kaXBvZGk6bmFtZWR2aWV3PiYjeGE7PGcgaWQ9Imc3NDMxMCIgdHJhbnNmb3JtPSJ0cmFuc2xhdGUoLTAuNzUwMDMzMjMsLTAuNzQ1KSI+JiN4YTsJPHRpdGxlIGlkPSJ0aXRsZTc0MjcwIj5QYWdlLTE8L3RpdGxlPiYjeGE7CTxnIGlkPSJncm91cDQ4ODUtMSIgdHJhbnNmb3JtPSJ0cmFuc2xhdGUoMC4yMjUsLTAuNzUpIj4mI3hhOwkJPHRpdGxlIGlkPSJ0aXRsZTc0MjcyIj5Db3NtbyBEQjwvdGl0bGU+JiN4YTsJCTxnIGlkPSJzaGFwZTQ4ODYtMiIgdHJhbnNmb3JtPSJ0cmFuc2xhdGUoNS43NzUsLTIuNTUpIj4mI3hhOwkJCTx0aXRsZSBpZD0idGl0bGU3NDI3NCI+U2hlZXQuNDg4NjwvdGl0bGU+JiN4YTsJCQk8cGF0aCBpZD0icGF0aDc0Mjc2IiBpbmtzY2FwZTpjb25uZWN0b3ItY3VydmF0dXJlPSIwIiBzdHlsZT0iZmlsbDojNTlCNEQ5OyIgZD0iTTI1LjczLDE5LjVjMS41Nyw2LjY4LTIuNDgsMTMuMzUtOS4xNSwxNC45MyAgICAgQzkuOSwzNiwzLjMsMzIuMDMsMS42NSwyNS4zNUMwLDE4LjY4LDQuMTMsMTIsMTAuOCwxMC40M2wwLDBDMTcuNCw4Ljc4LDI0LjA4LDEyLjgzLDI1LjczLDE5LjVMMjUuNzMsMTkuNXoiLz4mI3hhOwkJPC9nPiYjeGE7CQk8ZyBpZD0ic2hhcGU0ODg3LTQiIHRyYW5zZm9ybT0idHJhbnNsYXRlKDYuNiwtNy44NzUpIj4mI3hhOwkJCTx0aXRsZSBpZD0idGl0bGU3NDI3OSI+U2hlZXQuNDg4NzwvdGl0bGU+JiN4YTsJCQk8cGF0aCBpZD0icGF0aDc0MjgxIiBpbmtzY2FwZTpjb25uZWN0b3ItY3VydmF0dXJlPSIwIiBzdHlsZT0iZmlsbDojRkZGRkZGO2ZpbGwtb3BhY2l0eTowLjU7IiBkPSJNMTEuMSwzMi43ICAgICBjMC0xLjgtMS41LTMuMy0zLjMtMy4zbDAsMEg3LjI4YzAuNDUtMS43Mi0wLjY4LTMuNTItMi40LTMuOTdjLTAuMjMtMC4wOC0wLjUzLTAuMDgtMC44My0wLjA4aC0zLjMgICAgIGMtMC43NSwzLjgzLDAuMzgsNy43MywzLDEwLjU4aDQuMTNDOS42OCwzNiwxMS4xLDM0LjU4LDExLjEsMzIuN0wxMS4xLDMyLjd6Ii8+JiN4YTsJCTwvZz4mI3hhOwkJPGcgaWQ9InNoYXBlNDg4OC02IiB0cmFuc2Zvcm09InRyYW5zbGF0ZSgxNy4wMjUsLTE3LjI1KSI+JiN4YTsJCQk8dGl0bGUgaWQ9InRpdGxlNzQyODQiPlNoZWV0LjQ4ODg8L3RpdGxlPiYjeGE7CQkJPHBhdGggaWQ9InBhdGg3NDI4NiIgaW5rc2NhcGU6Y29ubmVjdG9yLWN1cnZhdHVyZT0iMCIgc3R5bGU9ImZpbGw6I0ZGRkZGRjtmaWxsLW9wYWNpdHk6MC41OyIgZD0iTTQuOCwyOC41ICAgICBjMCwwLjIzLDAsMC4zOCwwLjA3LDAuNkgzLjQ1QzEuNTcsMjkuMSwwLDMwLjYsMCwzMi41NVMxLjUsMzYsMy40NSwzNmgxMS4zMkMxNC40LDMxLjgsMTIsMjguMiw4LjQsMjYuMjVINy4wNSAgICAgQzUuNzcsMjYuMjUsNC44LDI3LjIzLDQuOCwyOC41eiIvPiYjeGE7CQk8L2c+JiN4YTsJCTxnIGlkPSJzaGFwZTQ4ODktOCIgdHJhbnNmb3JtPSJ0cmFuc2xhdGUoMjAuMzI1LC01LjMyNSkiPiYjeGE7CQkJPHRpdGxlIGlkPSJ0aXRsZTc0Mjg5Ij5TaGVldC40ODg5PC90aXRsZT4mI3hhOwkJCTxwYXRoIGlkPSJwYXRoNzQyOTEiIGlua3NjYXBlOmNvbm5lY3Rvci1jdXJ2YXR1cmU9IjAiIHN0eWxlPSJmaWxsOiNGRkZGRkY7ZmlsbC1vcGFjaXR5OjAuNTsiIGQ9Ik0xMS40OCwyNi40OEg0LjczICAgICBjLTEuNSwwLTIuNzgsMS4yLTIuNzgsMi43N2MwLDAuNDUsMC4xNSwwLjksMC4zLDEuMzVjLTEuNSwwLjQ1LTIuMjUsMi4wMy0xLjgsMy40NUMwLjgzLDM1LjI1LDEuODgsMzYsMy4xNSwzNmgxLjggICAgIEM4LjU1LDM0LjEzLDExLjAzLDMwLjUzLDExLjQ4LDI2LjQ4eiIvPiYjeGE7CQk8L2c+JiN4YTsJCTxnIGlkPSJzaGFwZTQ4OTAtMTAiIHRyYW5zZm9ybT0idHJhbnNsYXRlKDAuNTI1LC0yNC4zNzUpIj4mI3hhOwkJCTx0aXRsZSBpZD0idGl0bGU3NDI5NCI+U2hlZXQuNDg5MDwvdGl0bGU+JiN4YTsJCQk8cGF0aCBpZD0icGF0aDc0Mjk2IiBpbmtzY2FwZTpjb25uZWN0b3ItY3VydmF0dXJlPSIwIiBzdHlsZT0iZmlsbDojQjhENDMyOyIgZD0iTTUuMSwzNmMtMC4yMiwwLTAuMzctMC4xNS0wLjM3LTAuMzcgICAgIGMwLTIuNC0xLjk1LTQuMzUtNC4zNS00LjM1QzAuMTUsMzEuMzUsMCwzMS4xMywwLDMwLjk4czAuMTUtMC4zOCwwLjM4LTAuMzhjMi40LDAsNC4zNS0xLjk1LDQuMzUtNC4zNSAgICAgYzAtMC4yMywwLjE1LTAuMzgsMC4zNy0wLjM4YzAuMjMsMCwwLjM4LDAuMTUsMC4zOCwwLjM4YzAsMi40LDEuOTUsNC4zNSw0LjM1LDQuMzVjMC4yMiwwLDAuMzcsMC4xNSwwLjM3LDAuMzggICAgIGMwLDAuMjItMC4xNSwwLjM3LTAuMzcsMC4zN2MtMi40LDAtNC4zNSwxLjk1LTQuMzUsNC4zNUM1LjQ4LDM1Ljg1LDUuMzMsMzYsNS4xLDM2eiIvPiYjeGE7CQk8L2c+JiN4YTsJCTxnIGlkPSJzaGFwZTQ4OTEtMTIiIHRyYW5zZm9ybT0idHJhbnNsYXRlKDI5LjI1KSI+JiN4YTsJCQk8dGl0bGUgaWQ9InRpdGxlNzQyOTkiPlNoZWV0LjQ4OTE8L3RpdGxlPiYjeGE7CQkJPHBhdGggaWQ9InBhdGg3NDMwMSIgaW5rc2NhcGU6Y29ubmVjdG9yLWN1cnZhdHVyZT0iMCIgc3R5bGU9ImZpbGw6IzI2QkNFRTsiIGQ9Ik0zLjA3LDM2Yy0wLjE1LDAtMC4yMi0wLjA3LTAuMjItMC4yMiAgICAgYzAtMS40My0xLjItMi41NS0yLjYzLTIuNTVDMC4wNywzMy4yMywwLDMzLjE1LDAsMzNzMC4wNy0wLjIyLDAuMjItMC4yMmwwLDBjMS40MywwLDIuNTUtMS4xMywyLjYzLTIuNTUgICAgIGMwLTAuMTUsMC4wNy0wLjIzLDAuMjItMC4yM3MwLjIzLDAuMDgsMC4yMywwLjIzYzAsMS40MiwxLjIsMi41NSwyLjYyLDIuNTVjMC4xNSwwLDAuMjMsMC4wNywwLjIzLDAuMjJzLTAuMDgsMC4yMy0wLjIzLDAuMjMgICAgIGwwLDBjLTEuNDIsMC0yLjU1LDEuMTItMi42MiwyLjU1QzMuMywzNS44NSwzLjIyLDM2LDMuMDcsMzZDMy4wNywzNiwzLjA3LDM2LDMuMDcsMzZ6Ii8+JiN4YTsJCTwvZz4mI3hhOwkJPGcgaWQ9InNoYXBlNDg5Mi0xNCIgdHJhbnNmb3JtPSJ0cmFuc2xhdGUoMCwtMy4zNzUpIj4mI3hhOwkJCTx0aXRsZSBpZD0idGl0bGU3NDMwNCI+U2hlZXQuNDg5MjwvdGl0bGU+JiN4YTsJCQk8cGF0aCBpZD0icGF0aDc0MzA2IiBpbmtzY2FwZTpjb25uZWN0b3ItY3VydmF0dXJlPSIwIiBzdHlsZT0iZmlsbDojMEYwRjBGOyIgZD0iTTM3LjUsMTIuMTVjLTEuMi0xLjk1LTQuMTMtMi40LTguNjMtMS4yNyAgICAgYy0xLjM1LDAuMzctMi43NywwLjc1LTQuMDUsMS4yN2MwLjgzLDAuNDUsMS42NSwwLjksMi40LDEuNWMwLjc1LTAuMjIsMS41LTAuNDUsMi4xOC0wLjY3YzEuMi0wLjMsMi40LTAuNDUsMy42LTAuNTMgICAgIGMxLjQyLDAsMi4yNSwwLjM4LDIuNTUsMC44M2MwLjQ1LDAuNzUsMCwyLjYyLTIuNTUsNS42MmMtMC40NSwwLjUzLTAuOTgsMS4wNS0xLjUsMS41OGMtMi44NSwyLjctNS45Myw1LjEtOS4zLDcuMTIgICAgIGMtMy4zNywyLjEtNi45LDMuODMtMTAuNjUsNS4wM2MtNC41LDEuNDItNy41NywxLjQyLTguMjUsMC4zYy0wLjY4LTEuMTMsMC42OC0zLjksNC4wNS03LjJjLTAuMjMtMC45OC0wLjMtMS45NS0wLjMtMi44NSAgICAgYy01LjMyLDQuOC03LjA1LDktNS43LDExLjI1QzIuMSwzNS4zMywzLjY3LDM2LDUuOTIsMzZjMi43LTAuMTUsNS40LTAuNjcsNy45NS0xLjcyYzMuMy0xLjI4LDYuNDUtMi44NSw5LjM4LTQuNzMgICAgIGMzLTEuOCw1Ljg1LTMuOSw4LjQ3LTYuM2MxLjA1LTAuOSwyLjAzLTEuODcsMi45My0yLjkyQzM3LjcyLDE2Ljg4LDM4LjcsMTQuMDMsMzcuNSwxMi4xNXoiLz4mI3hhOwkJPC9nPiYjeGE7CTwvZz4mI3hhOzwvZz4mI3hhOzwvc3ZnPg==;" parent="1" vertex="1">
          <mxGeometry x="625" y="620" width="47" height="44.46" as="geometry" />
        </mxCell>
        <mxCell id="RgEp6XTYewznHyzpMlsy-74" value="Azure AI Search" style="text;html=1;align=center;verticalAlign=middle;whiteSpace=wrap;rounded=0;" parent="1" vertex="1">
          <mxGeometry x="740" y="669" width="70" height="30" as="geometry" />
        </mxCell>
        <mxCell id="RgEp6XTYewznHyzpMlsy-77" value="Azure CosmosDB" style="text;html=1;align=center;verticalAlign=middle;whiteSpace=wrap;rounded=0;" parent="1" vertex="1">
          <mxGeometry x="613.51" y="670" width="70" height="30" as="geometry" />
        </mxCell>
        <mxCell id="RgEp6XTYewznHyzpMlsy-80" value="AI" style="text;html=1;align=center;verticalAlign=middle;whiteSpace=wrap;rounded=0;" parent="1" vertex="1">
          <mxGeometry x="869.75" y="712" width="57.5" height="24" as="geometry" />
        </mxCell>
        <mxCell id="RgEp6XTYewznHyzpMlsy-81" value="" style="endArrow=classic;html=1;rounded=0;" parent="1" edge="1">
          <mxGeometry width="50" height="50" relative="1" as="geometry">
            <mxPoint x="370" y="498.8" as="sourcePoint" />
            <mxPoint x="428" y="498.8" as="targetPoint" />
          </mxGeometry>
        </mxCell>
        <mxCell id="RgEp6XTYewznHyzpMlsy-83" value="" style="rounded=0;whiteSpace=wrap;html=1;fillColor=#f5f5f5;fontColor=#333333;strokeColor=#666666;" parent="1" vertex="1">
          <mxGeometry x="220" y="616" width="76.5" height="95" as="geometry" />
        </mxCell>
        <mxCell id="RgEp6XTYewznHyzpMlsy-84" value="" style="image;aspect=fixed;html=1;points=[];align=center;fontSize=12;image=img/lib/azure2/identity/Azure_Active_Directory.svg;" parent="1" vertex="1">
          <mxGeometry x="231.5" y="621.09" width="53.5" height="48.91" as="geometry" />
        </mxCell>
        <mxCell id="RgEp6XTYewznHyzpMlsy-85" value="Data" style="text;html=1;align=center;verticalAlign=middle;whiteSpace=wrap;rounded=0;" parent="1" vertex="1">
          <mxGeometry x="626.87" y="716" width="43.25" height="16" as="geometry" />
        </mxCell>
        <mxCell id="RgEp6XTYewznHyzpMlsy-86" value="Azure Active Directory" style="text;html=1;align=center;verticalAlign=middle;whiteSpace=wrap;rounded=0;" parent="1" vertex="1">
          <mxGeometry x="223" y="672" width="70" height="30" as="geometry" />
        </mxCell>
        <mxCell id="RgEp6XTYewznHyzpMlsy-88" value="Identity" style="text;html=1;align=center;verticalAlign=middle;whiteSpace=wrap;rounded=0;" parent="1" vertex="1">
          <mxGeometry x="228" y="709" width="60" height="30" as="geometry" />
        </mxCell>
        <mxCell id="RgEp6XTYewznHyzpMlsy-91" value="" style="rounded=0;whiteSpace=wrap;html=1;fillColor=#f5f5f5;fontColor=#333333;strokeColor=#666666;" parent="1" vertex="1">
          <mxGeometry x="173" y="750" width="170" height="100" as="geometry" />
        </mxCell>
        <mxCell id="RgEp6XTYewznHyzpMlsy-92" value="" style="image;aspect=fixed;html=1;points=[];align=center;fontSize=12;image=img/lib/azure2/management_governance/Application_Insights.svg;" parent="1" vertex="1">
          <mxGeometry x="190.5" y="760" width="32.5" height="46.53" as="geometry" />
        </mxCell>
        <mxCell id="RgEp6XTYewznHyzpMlsy-93" value="" style="image;aspect=fixed;html=1;points=[];align=center;fontSize=12;image=img/lib/azure2/management_governance/Monitor.svg;" parent="1" vertex="1">
          <mxGeometry x="270" y="761.26" width="45.27" height="45.27" as="geometry" />
        </mxCell>
        <mxCell id="RgEp6XTYewznHyzpMlsy-94" value="Application Insights" style="text;html=1;align=center;verticalAlign=middle;whiteSpace=wrap;rounded=0;" parent="1" vertex="1">
          <mxGeometry x="176.75" y="810" width="60" height="30" as="geometry" />
        </mxCell>
        <mxCell id="RgEp6XTYewznHyzpMlsy-95" value="Azure Monitor" style="text;html=1;align=center;verticalAlign=middle;whiteSpace=wrap;rounded=0;" parent="1" vertex="1">
          <mxGeometry x="260" y="810" width="60" height="30" as="geometry" />
        </mxCell>
        <mxCell id="RgEp6XTYewznHyzpMlsy-96" value="Monitoring" style="text;html=1;align=center;verticalAlign=middle;whiteSpace=wrap;rounded=0;" parent="1" vertex="1">
          <mxGeometry x="209.5" y="850" width="97" height="30" as="geometry" />
        </mxCell>
        <mxCell id="RgEp6XTYewznHyzpMlsy-102" value="" style="rounded=0;whiteSpace=wrap;html=1;strokeColor=none;" parent="1" vertex="1">
          <mxGeometry x="853.25" y="484.43000000000006" width="100" height="60" as="geometry" />
        </mxCell>
        <mxCell id="RgEp6XTYewznHyzpMlsy-104" value="" style="shape=image;verticalLabelPosition=bottom;verticalAlign=top;imageAspect=0;aspect=fixed;image=data:image/svg+xml,PHN2ZyB4bWxuczpkYz0iaHR0cDovL3B1cmwub3JnL2RjL2VsZW1lbnRzLzEuMS8iIHhtbG5zOmNjPSJodHRwOi8vY3JlYXRpdmVjb21tb25zLm9yZy9ucyMiIHhtbG5zOnJkZj0iaHR0cDovL3d3dy53My5vcmcvMTk5OS8wMi8yMi1yZGYtc3ludGF4LW5zIyIgeG1sbnM6c3ZnPSJodHRwOi8vd3d3LnczLm9yZy8yMDAwL3N2ZyIgeG1sbnM9Imh0dHA6Ly93d3cudzMub3JnLzIwMDAvc3ZnIiB4bWxuczpzb2RpcG9kaT0iaHR0cDovL3NvZGlwb2RpLnNvdXJjZWZvcmdlLm5ldC9EVEQvc29kaXBvZGktMC5kdGQiIHhtbG5zOmlua3NjYXBlPSJodHRwOi8vd3d3Lmlua3NjYXBlLm9yZy9uYW1lc3BhY2VzL2lua3NjYXBlIiBjbGFzcz0iIiBpZD0iRnhTeW1ib2wwLTA4MyIgcm9sZT0icHJlc2VudGF0aW9uIiB2aWV3Qm94PSIwIDAgNTAgMzEuMjUwOTk5IiBmb2N1c2FibGU9ImZhbHNlIiB2ZXJzaW9uPSIxLjEiIHNvZGlwb2RpOmRvY25hbWU9ImFwaV9jb25uZWN0aW9ucy5zdmciIHdpZHRoPSI1MCIgaGVpZ2h0PSIzMS4yNTA5OTkiIGlua3NjYXBlOnZlcnNpb249IjAuOTIuMyAoMjQwNTU0NiwgMjAxOC0wMy0xMSkiPiYjeGE7ICA8bWV0YWRhdGEgaWQ9Im1ldGFkYXRhMTA0ODciPiYjeGE7ICAgIDxyZGY6UkRGPiYjeGE7ICAgICAgPGNjOldvcmsgcmRmOmFib3V0PSIiPiYjeGE7ICAgICAgICA8ZGM6Zm9ybWF0PmltYWdlL3N2Zyt4bWw8L2RjOmZvcm1hdD4mI3hhOyAgICAgICAgPGRjOnR5cGUgcmRmOnJlc291cmNlPSJodHRwOi8vcHVybC5vcmcvZGMvZGNtaXR5cGUvU3RpbGxJbWFnZSIvPiYjeGE7ICAgICAgICA8ZGM6dGl0bGUvPiYjeGE7ICAgICAgPC9jYzpXb3JrPiYjeGE7ICAgIDwvcmRmOlJERj4mI3hhOyAgPC9tZXRhZGF0YT4mI3hhOyAgPGRlZnMgaWQ9ImRlZnMxMDQ4NSIvPiYjeGE7ICA8c29kaXBvZGk6bmFtZWR2aWV3IHBhZ2Vjb2xvcj0iI2ZmZmZmZiIgYm9yZGVyY29sb3I9IiM2NjY2NjYiIGJvcmRlcm9wYWNpdHk9IjEiIG9iamVjdHRvbGVyYW5jZT0iMTAiIGdyaWR0b2xlcmFuY2U9IjEwIiBndWlkZXRvbGVyYW5jZT0iMTAiIGlua3NjYXBlOnBhZ2VvcGFjaXR5PSIwIiBpbmtzY2FwZTpwYWdlc2hhZG93PSIyIiBpbmtzY2FwZTp3aW5kb3ctd2lkdGg9IjE5MjAiIGlua3NjYXBlOndpbmRvdy1oZWlnaHQ9IjEwMTciIGlkPSJuYW1lZHZpZXcxMDQ4MyIgc2hvd2dyaWQ9ImZhbHNlIiBpbmtzY2FwZTp6b29tPSIxNyIgaW5rc2NhcGU6Y3g9IjI1IiBpbmtzY2FwZTpjeT0iMTUuNjI2IiBpbmtzY2FwZTp3aW5kb3cteD0iLTgiIGlua3NjYXBlOndpbmRvdy15PSItOCIgaW5rc2NhcGU6d2luZG93LW1heGltaXplZD0iMSIgaW5rc2NhcGU6Y3VycmVudC1sYXllcj0iRnhTeW1ib2wwLTA4MyIgZml0LW1hcmdpbi10b3A9IjAiIGZpdC1tYXJnaW4tbGVmdD0iMCIgZml0LW1hcmdpbi1yaWdodD0iMCIgZml0LW1hcmdpbi1ib3R0b209IjAiLz4mI3hhOyAgPGcgaWQ9ImcxMDQ4MCIgdHJhbnNmb3JtPSJ0cmFuc2xhdGUoMCwtOS4zNzUpIj4mI3hhOyAgICA8dGl0bGUgaWQ9InRpdGxlMTA0NzQiLz4mI3hhOyAgICA8cGF0aCBjbGFzcz0ibXNwb3J0YWxmeC1zdmctYzE0IiBkPSJtIDM5LjA2MywxOC43NSBjIDEuNTE0LDAgMi45MzQsMC4yODkgNC4yNiwwLjg2NyAxLjMyNiwwLjU3OCAyLjQ4MiwxLjM1OSAzLjQ2NywyLjM0NCAwLjk4NSwwLjk4NSAxLjc2NiwyLjE0IDIuMzQ0LDMuNDY3IDAuNTc4LDEuMzI3IDAuODY2LDIuNzQ2IDAuODY2LDQuMjYgMCwxLjUxNCAtMC4yODksMi45MzQgLTAuODY3LDQuMjYgLTAuNTc4LDEuMzI2IC0xLjM1OSwyLjQ4MiAtMi4zNDQsMy40NjcgLTAuOTg1LDAuOTg1IC0yLjE0LDEuNzY2IC0zLjQ2NywyLjM0NCAtMS4zMjcsMC41NzggLTIuNzQ3LDAuODY3IC00LjI2LDAuODY3IGggLTEyLjUgYyAtMS41MTQsMCAtMi45MzQsLTAuMjg5IC00LjI2LC0wLjg2NyAtMS4zMjYsLTAuNTc4IC0yLjQ4MiwtMS4zNTkgLTMuNDY3LC0yLjM0NCAtMC45ODUsLTAuOTg1IC0xLjc2NiwtMi4xNCAtMi4zNDQsLTMuNDY3IC0wLjU3OCwtMS4zMjcgLTAuODY3LC0yLjc0NyAtMC44NjcsLTQuMjYgMCwtMS41MTMgMC4yODksLTIuOTM0IDAuODY3LC00LjI2IDAuNTc4LC0xLjMyNiAxLjM1OSwtMi40ODIgMi4zNDQsLTMuNDY3IDAuOTg1LC0wLjk4NSAyLjE0LC0xLjc2NiAzLjQ2NywtMi4zNDQgMS4zMjcsLTAuNTc4IDIuNzQ3LC0wLjg2NyA0LjI2LC0wLjg2NyBoIDEuNTYzIHYgMy4xMjUgYyAtMS4yMzcsMCAtMi40MjEsMC4xNDIgLTMuNTUyLDAuNDI3IC0xLjEzMSwwLjI4NSAtMi4xMjgsMC43NDEgLTIuOTkxLDEuMzY3IC0wLjg2MywwLjYyNiAtMS41NSwxLjQzMiAtMi4wNjMsMi40MTcgLTAuNTEzLDAuOTg1IC0wLjc2OSwyLjE4NSAtMC43NjksMy42MDEgMCwxLjA3NCAwLjIwOCwyLjA4MyAwLjYyMywzLjAyNyAwLjQxNSwwLjk0NCAwLjk3NywxLjc3IDEuNjg1LDIuNDc4IDAuNzA4LDAuNzA4IDEuNTM0LDEuMjcgMi40NzgsMS42ODUgMC45NDQsMC40MTUgMS45NTMsMC42MjMgMy4wMjcsMC42MjMgaCAxMi41IGMgMS4wNzQsMCAyLjA4MywtMC4yMDggMy4wMjcsLTAuNjIzIDAuOTQ0LC0wLjQxNSAxLjc3LC0wLjk3NyAyLjQ3OCwtMS42ODUgMC43MDgsLTAuNzA4IDEuMjcsLTEuNTM0IDEuNjg1LC0yLjQ3OCAwLjQxNSwtMC45NDQgMC42MjMsLTEuOTUzIDAuNjIzLC0zLjAyNyAwLC0xLjQxNiAtMC4yNTYsLTIuNjE2IC0wLjc2OSwtMy42MDEgLTAuNTEzLC0wLjk4NSAtMS4yLC0xLjc5IC0yLjA2MywtMi40MTcgLTAuODYzLC0wLjYyNyAtMS44NiwtMS4wODIgLTIuOTkxLC0xLjM2NyAtMS4xMzEsLTAuMjg1IC0yLjMxNSwtMC40MjcgLTMuNTUyLC0wLjQyNyBWIDE4Ljc1IFoiIGlkPSJwYXRoMTA0NzYiIGlua3NjYXBlOmNvbm5lY3Rvci1jdXJ2YXR1cmU9IjAiIHN0eWxlPSJmaWxsOiM3ZmJhMDAiLz4mI3hhOyAgICA8cGF0aCBjbGFzcz0ibXNwb3J0YWxmeC1zdmctYzE1IiBkPSJtIDIxLjg3NSwzMS4yNSB2IC0zLjEyNSBjIDEuMjM3LDAgMi40MjEsLTAuMTQyIDMuNTUyLC0wLjQyNyAxLjEzMSwtMC4yODUgMi4xMjgsLTAuNzQxIDIuOTkxLC0xLjM2NyAwLjg2MywtMC42MjYgMS41NSwtMS40MzIgMi4wNjMsLTIuNDE3IDAuNTEzLC0wLjk4NSAwLjc2OSwtMi4xODUgMC43NjksLTMuNjAxIDAsLTEuMDc0IC0wLjIwOCwtMi4wODMgLTAuNjIzLC0zLjAyNyBDIDMwLjIxMiwxNi4zNDIgMjkuNjUsMTUuNTE2IDI4Ljk0MiwxNC44MDggMjguMjM0LDE0LjEgMjcuNDA4LDEzLjUzOCAyNi40NjQsMTMuMTIzIDI1LjUyLDEyLjcwOCAyNC41MTIsMTIuNSAyMy40MzgsMTIuNSBoIC0xMi41IGMgLTEuMDc0LDAgLTIuMDgzLDAuMjA4IC0zLjAyNywwLjYyMyAtMC45NDQsMC40MTUgLTEuNzcsMC45NzcgLTIuNDc4LDEuNjg1IC0wLjcwOCwwLjcwOCAtMS4yNywxLjUzNCAtMS42ODUsMi40NzggLTAuNDE1LDAuOTQ0IC0wLjYyMywxLjk1MyAtMC42MjMsMy4wMjcgMCwxLjQxNiAwLjI1NiwyLjYxNiAwLjc2OSwzLjYwMSAwLjUxMywwLjk4NSAxLjIsMS43OSAyLjA2MywyLjQxNyAwLjg2MywwLjYyNyAxLjg2LDEuMDgyIDIuOTkxLDEuMzY3IDEuMTMxLDAuMjg1IDIuMzE1LDAuNDI3IDMuNTUyLDAuNDI3IFYgMzEuMjUgSCAxMC45MzcgQyA5LjQyMywzMS4yNSA4LjAwMywzMC45NjEgNi42NzcsMzAuMzgzIDUuMzUxLDI5LjgwNSA0LjE5NSwyOS4wMjQgMy4yMSwyOC4wNCAyLjIyNSwyNy4wNTYgMS40NDQsMjUuOSAwLjg2NiwyNC41NzMgMC4yODgsMjMuMjQ2IDAsMjEuODI2IDAsMjAuMzEzIDAsMTguOCAwLjI4OSwxNy4zNzkgMC44NjcsMTYuMDUzIDEuNDQ1LDE0LjcyNyAyLjIyNiwxMy41NzEgMy4yMTEsMTIuNTg2IDQuMTk2LDExLjYwMSA1LjM1MSwxMC44MiA2LjY3OCwxMC4yNDIgOC4wMDUsOS42NjQgOS40MjUsOS4zNzUgMTAuOTM4LDkuMzc1IGggMTIuNSBjIDEuNTE0LDAgMi45MzQsMC4yODkgNC4yNiwwLjg2NyAxLjMyNiwwLjU3OCAyLjQ4MiwxLjM1OSAzLjQ2NywyLjM0NCAwLjk4NSwwLjk4NSAxLjc2NiwyLjE0IDIuMzQ0LDMuNDY3IDAuNTc4LDEuMzI3IDAuODY3LDIuNzQ3IDAuODY3LDQuMjYgMCwxLjUxMyAtMC4yODksMi45MzQgLTAuODY3LDQuMjYgLTAuNTc4LDEuMzI2IC0xLjM1OSwyLjQ4MiAtMi4zNDQsMy40NjcgLTAuOTg1LDAuOTg1IC0yLjE0LDEuNzY2IC0zLjQ2NywyLjM0NCAtMS4zMjcsMC41NzggLTIuNzQ3LDAuODY3IC00LjI2LDAuODY3IGggLTEuNTYzIHoiIGlkPSJwYXRoMTA0NzgiIGlua3NjYXBlOmNvbm5lY3Rvci1jdXJ2YXR1cmU9IjAiIHN0eWxlPSJmaWxsOiM1OWI0ZDkiLz4mI3hhOyAgPC9nPiYjeGE7PC9zdmc+;" parent="1" vertex="1">
          <mxGeometry x="888.25" y="490" width="30" height="18.6" as="geometry" />
        </mxCell>
        <mxCell id="RgEp6XTYewznHyzpMlsy-106" value="AI&amp;nbsp;&lt;span style=&quot;background-color: initial;&quot;&gt;private&amp;nbsp;&lt;/span&gt;&lt;div&gt;&lt;span style=&quot;background-color: initial;&quot;&gt;endpoints&lt;/span&gt;&lt;/div&gt;" style="text;html=1;align=center;verticalAlign=middle;whiteSpace=wrap;rounded=0;fontSize=11;" parent="1" vertex="1">
          <mxGeometry x="850" y="514.43" width="106.5" height="30" as="geometry" />
        </mxCell>
        <mxCell id="RgEp6XTYewznHyzpMlsy-107" value="" style="rounded=0;whiteSpace=wrap;html=1;fillColor=#f5f5f5;fontColor=#333333;strokeColor=#666666;" parent="1" vertex="1">
          <mxGeometry x="860.75" y="615" width="84.12" height="95" as="geometry" />
        </mxCell>
        <mxCell id="RgEp6XTYewznHyzpMlsy-108" value="" style="endArrow=classic;html=1;rounded=0;" parent="1" edge="1">
          <mxGeometry width="50" height="50" relative="1" as="geometry">
            <mxPoint x="904.87" y="543.4300000000001" as="sourcePoint" />
            <mxPoint x="904.87" y="613.4300000000001" as="targetPoint" />
          </mxGeometry>
        </mxCell>
        <mxCell id="RgEp6XTYewznHyzpMlsy-109" value="" style="image;aspect=fixed;html=1;points=[];align=center;fontSize=12;image=img/lib/azure2/ai_machine_learning/Cognitive_Services.svg;" parent="1" vertex="1">
          <mxGeometry x="879.25" y="624.29" width="48" height="33.88" as="geometry" />
        </mxCell>
        <mxCell id="RgEp6XTYewznHyzpMlsy-110" value="Azure OpenAI Services" style="text;html=1;align=center;verticalAlign=middle;whiteSpace=wrap;rounded=0;" parent="1" vertex="1">
          <mxGeometry x="860.75" y="671" width="85" height="30" as="geometry" />
        </mxCell>
        <mxCell id="RgEp6XTYewznHyzpMlsy-116" value="" style="sketch=0;pointerEvents=1;shadow=0;dashed=0;html=1;strokeColor=none;labelPosition=center;verticalLabelPosition=bottom;verticalAlign=top;outlineConnect=0;align=center;shape=mxgraph.office.users.user;fillColor=#2072B8;" parent="1" vertex="1">
          <mxGeometry x="77.5" y="390" width="46" height="50" as="geometry" />
        </mxCell>
        <mxCell id="KM5gHg42rN1_D-O26ENq-1" value="" style="image;aspect=fixed;html=1;points=[];align=center;fontSize=12;image=img/lib/azure2/app_services/Search_Services.svg;" vertex="1" parent="1">
          <mxGeometry x="750.5" y="624.53" width="49" height="35.4" as="geometry" />
        </mxCell>
        <mxCell id="KM5gHg42rN1_D-O26ENq-2" value="" style="shape=image;verticalLabelPosition=bottom;labelBackgroundColor=#ffffff;verticalAlign=top;aspect=fixed;imageAspect=0;image=data:image/svg+xml,PHN2ZyB4bWxuczpjYz0iaHR0cDovL2NyZWF0aXZlY29tbW9ucy5vcmcvbnMjIiB4bWxuczpkYz0iaHR0cDovL3B1cmwub3JnL2RjL2VsZW1lbnRzLzEuMS8iIHhtbG5zOmlua3NjYXBlPSJodHRwOi8vd3d3Lmlua3NjYXBlLm9yZy9uYW1lc3BhY2VzL2lua3NjYXBlIiB4bWxuczpyZGY9Imh0dHA6Ly93d3cudzMub3JnLzE5OTkvMDIvMjItcmRmLXN5bnRheC1ucyMiIHhtbG5zOnNvZGlwb2RpPSJodHRwOi8vc29kaXBvZGkuc291cmNlZm9yZ2UubmV0L0RURC9zb2RpcG9kaS0wLmR0ZCIgeG1sbnM6c3ZnPSJodHRwOi8vd3d3LnczLm9yZy8yMDAwL3N2ZyIgeG1sbnM9Imh0dHA6Ly93d3cudzMub3JnLzIwMDAvc3ZnIiB4bWxuczp4bGluaz0iaHR0cDovL3d3dy53My5vcmcvMTk5OS94bGluayIgdmVyc2lvbj0iMS4xIiBpZD0ic3ZnNTgwODUiIGlua3NjYXBlOnZlcnNpb249IjAuOTIuMyAoMjQwNTU0NiwgMjAxOC0wMy0xMSkiIHNvZGlwb2RpOmRvY25hbWU9ImF6dXJlX2ZpbGVzX3N0b3JhZ2Uuc3ZnIiB4PSIwcHgiIHk9IjBweCIgdmlld0JveD0iMCAwIDc1LjE3IDYyLjY1IiBzdHlsZT0iZW5hYmxlLWJhY2tncm91bmQ6bmV3IDAgMCA3NS4xNyA2Mi42NTsiIHhtbDpzcGFjZT0icHJlc2VydmUiPiYjeGE7PHNvZGlwb2RpOm5hbWVkdmlldyBib3JkZXJjb2xvcj0iIzY2NjY2NiIgYm9yZGVyb3BhY2l0eT0iMSIgZml0LW1hcmdpbi1ib3R0b209IjAiIGZpdC1tYXJnaW4tbGVmdD0iMCIgZml0LW1hcmdpbi1yaWdodD0iMCIgZml0LW1hcmdpbi10b3A9IjAiIGdyaWR0b2xlcmFuY2U9IjEwIiBndWlkZXRvbGVyYW5jZT0iMTAiIGlkPSJuYW1lZHZpZXc1ODA4NyIgaW5rc2NhcGU6Y3VycmVudC1sYXllcj0ic3ZnNTgwODUiIGlua3NjYXBlOmN4PSIxMDcuNDEzOTciIGlua3NjYXBlOmN5PSIyNS4yNzAzOCIgaW5rc2NhcGU6cGFnZW9wYWNpdHk9IjAiIGlua3NjYXBlOnBhZ2VzaGFkb3c9IjIiIGlua3NjYXBlOndpbmRvdy1oZWlnaHQ9IjEwMTciIGlua3NjYXBlOndpbmRvdy1tYXhpbWl6ZWQ9IjEiIGlua3NjYXBlOndpbmRvdy13aWR0aD0iMTkyMCIgaW5rc2NhcGU6d2luZG93LXg9Ii04IiBpbmtzY2FwZTp3aW5kb3cteT0iLTgiIGlua3NjYXBlOnpvb209IjQuMTcxMTY5OSIgb2JqZWN0dG9sZXJhbmNlPSIxMCIgcGFnZWNvbG9yPSIjZmZmZmZmIiBzaG93Z3JpZD0iZmFsc2UiPiYjeGE7CTwvc29kaXBvZGk6bmFtZWR2aWV3PiYjeGE7PGcgaWQ9Imc1ODA4MyIgdHJhbnNmb3JtPSJ0cmFuc2xhdGUoLTcuNjUwMTcwMywtNy42NDczOTUpIj4mI3hhOwk8dGl0bGUgaWQ9InRpdGxlNTgwNDYiPlBhZ2UtMTwvdGl0bGU+JiN4YTsJPGcgaWQ9Imdyb3VwNTIwOS0xIiB0cmFuc2Zvcm09InRyYW5zbGF0ZSg3LjY1LC03LjY1KSI+JiN4YTsJCTx0aXRsZSBpZD0idGl0bGU1ODA0OCI+QXp1cmUgRmlsZXMgU3RvcmFnZTwvdGl0bGU+JiN4YTsJCTxnIGlkPSJzaGFwZTUyMTAtMiI+JiN4YTsJCQk8dGl0bGUgaWQ9InRpdGxlNTgwNTAiPlNoZWV0LjUyMTA8L3RpdGxlPiYjeGE7CQkJPHBhdGggaWQ9InBhdGg1ODA1MiIgaW5rc2NhcGU6Y29ubmVjdG9yLWN1cnZhdHVyZT0iMCIgc3R5bGU9ImZpbGw6I0EwQTFBMjsiIGQ9Ik0wLDc1LjE4YzAsMS40NSwxLjIsMi43NywyLjcxLDIuNzdoNjkuNjEgICAgIGMxLjUsMCwyLjg1LTEuMTcsMi44NS0yLjc3VjI2Ljk1SDBWNzUuMTh6Ii8+JiN4YTsJCTwvZz4mI3hhOwkJPGcgaWQ9InNoYXBlNTIxMS00IiB0cmFuc2Zvcm09InRyYW5zbGF0ZSgwLC01MC45OTExKSI+JiN4YTsJCQk8dGl0bGUgaWQ9InRpdGxlNTgwNTUiPlNoZWV0LjUyMTE8L3RpdGxlPiYjeGE7CQkJPHBhdGggaWQ9InBhdGg1ODA1NyIgaW5rc2NhcGU6Y29ubmVjdG9yLWN1cnZhdHVyZT0iMCIgc3R5bGU9ImZpbGw6IzdBN0E3QTsiIGQ9Ik03Mi4zMiw2Ni40NEgyLjcxQzEuMiw2Ni40NCwwLDY3Ljc1LDAsNjkuMiAgICAgdjguNzVoNzUuMTd2LTguNzRjMC0xLjQ2LTEuMjItMi42MS0yLjg3LTIuNjFMNzIuMzIsNjYuNDR6Ii8+JiN4YTsJCQk8cGF0aCBpZD0icGF0aDU4MDU5IiBpbmtzY2FwZTpjb25uZWN0b3ItY3VydmF0dXJlPSIwIiBzdHlsZT0iZmlsbDpub25lOyIgZD0iTTcyLjMyLDY2LjQ0SDIuNzFDMS4yLDY2LjQ0LDAsNjcuNzUsMCw2OS4ydjguNzUgICAgIGg3NS4xN3YtOC43NGMwLTEuNDYtMS4yMi0yLjYxLTIuODctMi42MSIvPiYjeGE7CQk8L2c+JiN4YTsJCTxnIGlkPSJzaGFwZTUyMTItNyIgdHJhbnNmb3JtPSJ0cmFuc2xhdGUoNi4wMTM5OSwtMjEuMTI0MSkiPiYjeGE7CQkJPHRpdGxlIGlkPSJ0aXRsZTU4MDYyIj5TaGVldC41MjEyPC90aXRsZT4mI3hhOwkJCTxyZWN0IGlkPSJyZWN0NTgwNjQiIHg9IjAiIHk9IjY3Ljc1IiBzdHlsZT0iZmlsbDojQjhENDMyOyIgd2lkdGg9IjYzLjE1IiBoZWlnaHQ9IjEwLjIiLz4mI3hhOwkJPC9nPiYjeGE7CQk8ZyBpZD0ic2hhcGU1MjEzLTkiIHRyYW5zZm9ybT0idHJhbnNsYXRlKDYuMDEzOTksLTM2LjQyMSkiPiYjeGE7CQkJPHRpdGxlIGlkPSJ0aXRsZTU4MDY3Ij5TaGVldC41MjEzPC90aXRsZT4mI3hhOwkJCTxyZWN0IGlkPSJyZWN0NTgwNjkiIHg9IjAiIHk9IjY3Ljc1IiBzdHlsZT0iZmlsbDojRkZGRkZGOyIgd2lkdGg9IjYzLjE1IiBoZWlnaHQ9IjEwLjIiLz4mI3hhOwkJPC9nPiYjeGE7CQk8ZyBpZD0ic2hhcGU1MjE0LTExIiB0cmFuc2Zvcm09InRyYW5zbGF0ZSg2LjAxMzk5LC01LjgyNzMpIj4mI3hhOwkJCTx0aXRsZSBpZD0idGl0bGU1ODA3MiI+U2hlZXQuNTIxNDwvdGl0bGU+JiN4YTsJCQk8cmVjdCBpZD0icmVjdDU4MDc0IiB4PSIwIiB5PSI2Ny43NSIgc3R5bGU9ImZpbGw6I0I4RDQzMjsiIHdpZHRoPSI2My4xNSIgaGVpZ2h0PSIxMC4yIi8+JiN4YTsJCTwvZz4mI3hhOwkJPGcgaWQ9InNoYXBlNTIxNS0xMyIgdHJhbnNmb3JtPSJ0cmFuc2xhdGUoMCwtMC41ODI2MDUpIj4mI3hhOwkJCTx0aXRsZSBpZD0idGl0bGU1ODA3NyI+U2hlZXQuNTIxNTwvdGl0bGU+JiN4YTsJCQk8cGF0aCBpZD0icGF0aDU4MDc5IiBpbmtzY2FwZTpjb25uZWN0b3ItY3VydmF0dXJlPSIwIiBzdHlsZT0iZmlsbDojRkZGRkZGO2ZpbGwtb3BhY2l0eTowLjI7IiBkPSJNMy4wMSwxNS44OCAgICAgQzEuMzUsMTUuODgsMCwxNy4xOSwwLDE4Ljh2MTAuNjN2NC44MXY0MC43OWMwLDEuNiwxLjM1LDIuOTIsMy4wMSwyLjkyaDMuM2w1OS4yNC02Mi4wN0gzLjAxeiIvPiYjeGE7CQk8L2c+JiN4YTsJPC9nPiYjeGE7PC9nPiYjeGE7PC9zdmc+;" vertex="1" parent="1">
          <mxGeometry x="747.43" y="766.53" width="51.75" height="43.47" as="geometry" />
        </mxCell>
        <mxCell id="KM5gHg42rN1_D-O26ENq-4" value="Search" style="text;html=1;align=center;verticalAlign=middle;whiteSpace=wrap;rounded=0;" vertex="1" parent="1">
          <mxGeometry x="749" y="716" width="43.25" height="16" as="geometry" />
        </mxCell>
        <mxCell id="KM5gHg42rN1_D-O26ENq-6" value="Private data" style="text;html=1;align=center;verticalAlign=middle;whiteSpace=wrap;rounded=0;" vertex="1" parent="1">
          <mxGeometry x="725" y="810" width="96.62" height="30" as="geometry" />
        </mxCell>
      </root>
    </mxGraphModel>
  </diagram>
</mxfile>
